<svg width="10" height="20" viewBox="0 0 10 20" fill="none" xmlns="http://www.w3.org/2000/svg">
<path d="M1.65923 19.4123C1.87269 19.413 2.0836 19.3673 2.27646 19.2785C2.46932 19.1898 2.63924 19.0602 2.77372 18.8993L9.67496 10.5805C9.88511 10.3324 10 10.0212 10 9.7001C10 9.37895 9.88511 9.06777 9.67496 8.81969L2.53082 0.500866C2.28829 0.217725 1.93978 0.0396686 1.56196 0.00586685C1.18414 -0.0279349 0.807958 0.0852869 0.516167 0.320624C0.224376 0.555962 0.0408802 0.894138 0.00604534 1.26076C-0.0287895 1.62738 0.0878916 1.99241 0.330419 2.27555L6.71728 9.70703L0.544744 17.1385C0.370022 17.342 0.259035 17.5898 0.224916 17.8526C0.190796 18.1154 0.23497 18.3822 0.352214 18.6214C0.469458 18.8606 0.654863 19.0623 0.886491 19.2024C1.11812 19.3426 1.38628 19.4154 1.65923 19.4123Z" fill="#19123C"/>
</svg>
