<svg width="10" height="21" viewBox="0 0 10 21" fill="none" xmlns="http://www.w3.org/2000/svg">
<path d="M1.65923 20.388C1.87269 20.3887 2.0836 20.3407 2.27646 20.2475C2.46932 20.1542 2.63924 20.0181 2.77372 19.8492L9.67496 11.1123C9.88511 10.8517 10 10.5249 10 10.1876C10 9.85033 9.88511 9.52351 9.67496 9.26295L2.53082 0.526039C2.28829 0.228668 1.93978 0.0416623 1.56196 0.00616171C1.18414 -0.0293389 0.807958 0.0895734 0.516167 0.336739C0.224376 0.583904 0.0408802 0.939076 0.00604534 1.32412C-0.0287895 1.70917 0.0878916 2.09254 0.330419 2.38991L6.71728 10.1949L0.544744 17.9999C0.370022 18.2136 0.259035 18.4739 0.224916 18.7499C0.190796 19.0259 0.23497 19.3061 0.352214 19.5573C0.469458 19.8086 0.654863 20.0203 0.886491 20.1675C1.11812 20.3147 1.38628 20.3912 1.65923 20.388Z" fill="white"/>
</svg>
