<svg width="10" height="20" viewBox="0 0 10 20" fill="none" xmlns="http://www.w3.org/2000/svg">
<path d="M8.34077 19.4123C8.12731 19.413 7.9164 19.3673 7.72354 19.2785C7.53068 19.1898 7.36076 19.0602 7.22628 18.8993L0.325041 10.5805C0.114887 10.3324 0 10.0212 0 9.7001C0 9.37895 0.114887 9.06777 0.325041 8.81969L7.46918 0.500866C7.71171 0.217725 8.06022 0.0396686 8.43804 0.00586685C8.81586 -0.0279349 9.19204 0.0852869 9.48383 0.320624C9.77562 0.555962 9.95912 0.894138 9.99395 1.26076C10.0288 1.62738 9.91211 1.99241 9.66958 2.27555L3.28272 9.70703L9.45526 17.1385C9.62998 17.342 9.74096 17.5898 9.77508 17.8526C9.8092 18.1154 9.76503 18.3822 9.64779 18.6214C9.53054 18.8606 9.34514 19.0623 9.11351 19.2024C8.88188 19.3426 8.61372 19.4154 8.34077 19.4123Z" fill="#19123C"/>
</svg>
