<svg width="27" height="16" viewBox="0 0 27 16" fill="none" xmlns="http://www.w3.org/2000/svg">
<path fill-rule="evenodd" clip-rule="evenodd" d="M1.29183 1.29183C1.38473 1.19871 1.49508 1.12482 1.61657 1.07441C1.73806 1.024 1.8683 0.998047 1.99983 0.998047C2.13137 0.998047 2.26161 1.024 2.3831 1.07441C2.50459 1.12482 2.61494 1.19871 2.70783 1.29183L13.9998 12.5858L25.2918 1.29183C25.3848 1.19886 25.4952 1.12511 25.6167 1.07479C25.7381 1.02447 25.8683 0.99857 25.9998 0.99857C26.1313 0.99857 26.2615 1.02447 26.383 1.07479C26.5045 1.12511 26.6149 1.19886 26.7078 1.29183C26.8008 1.38481 26.8746 1.49519 26.9249 1.61667C26.9752 1.73815 27.0011 1.86835 27.0011 1.99983C27.0011 2.13132 26.9752 2.26152 26.9249 2.383C26.8746 2.50448 26.8008 2.61486 26.7078 2.70783L14.7078 14.7078C14.6149 14.801 14.5046 14.8748 14.3831 14.9253C14.2616 14.9757 14.1314 15.0016 13.9998 15.0016C13.8683 15.0016 13.7381 14.9757 13.6166 14.9253C13.4951 14.8748 13.3847 14.801 13.2918 14.7078L1.29183 2.70783C1.19871 2.61494 1.12482 2.50459 1.07441 2.3831C1.024 2.26161 0.998047 2.13137 0.998047 1.99983C0.998047 1.8683 1.024 1.73806 1.07441 1.61657C1.12482 1.49508 1.19871 1.38473 1.29183 1.29183Z" fill="black"/>
</svg>
