<svg width="16" height="16" viewBox="0 0 16 16" fill="none" xmlns="http://www.w3.org/2000/svg">
<path d="M8.36854 15.1998C6.34127 15.1998 4.4391 14.4141 3.01239 12.9874C1.58568 11.5608 0.799988 9.65848 0.799988 7.63119C0.799685 6.23267 1.18692 4.86143 1.91871 3.66965C2.6505 2.47788 3.69822 1.5122 4.94558 0.879784C5.0739 0.814367 5.21866 0.788196 5.36177 0.804541C5.50488 0.820885 5.64001 0.879019 5.75028 0.971687C5.86056 1.06435 5.9411 1.18745 5.98184 1.32561C6.02259 1.46377 6.02174 1.61086 5.9794 1.74854C5.62346 2.89823 5.58848 4.12333 5.87823 5.29145C6.16799 6.45958 6.77146 7.52631 7.62344 8.37637C8.23485 8.99232 8.96236 9.48089 9.76386 9.81377C10.5654 10.1467 11.4249 10.3173 12.2928 10.3157C12.9567 10.3162 13.6169 10.2166 14.2512 10.0203C14.3889 9.97795 14.536 9.97708 14.6741 10.0178C14.8123 10.0586 14.9354 10.1391 15.0281 10.2494C15.1208 10.3597 15.1789 10.4948 15.1953 10.6379C15.2116 10.7811 15.1854 10.9258 15.12 11.0542C14.4875 12.3015 13.5219 13.3492 12.3301 14.081C11.1383 14.8128 9.76706 15.2001 8.36854 15.1998ZM4.91938 1.99296C3.95212 2.58147 3.15311 3.40965 2.59964 4.39738C2.04617 5.38511 1.75697 6.49896 1.76001 7.63119C1.76001 11.2752 4.72456 14.2398 8.36854 14.2398C9.50077 14.2428 10.6146 13.9536 11.6024 13.4002C12.5901 12.8467 13.4183 12.0477 14.0068 11.0804C13.4448 11.2105 12.8698 11.276 12.2929 11.2758C11.2989 11.2777 10.3144 11.0824 9.39636 10.7013C8.47834 10.3201 7.64504 9.76066 6.9447 9.05529C6.03489 8.1472 5.37149 7.02224 5.01712 5.7866C4.66276 4.55095 4.62912 3.24539 4.91938 1.99314V1.99296Z" fill="white"/>
</svg>
