<svg width="11" height="14" viewBox="0 0 11 14" fill="none" xmlns="http://www.w3.org/2000/svg">
<path d="M2.56938 13.9999C2.77844 14.0004 2.98501 13.9675 3.17391 13.9034C3.3628 13.8394 3.52922 13.746 3.66093 13.63L10.4202 7.63053C10.626 7.45162 10.7385 7.22719 10.7385 6.99559C10.7385 6.76399 10.626 6.53957 10.4202 6.36065L3.42303 0.361218C3.18549 0.157021 2.84415 0.0286085 2.47411 0.0042311C2.10406 -0.0201463 1.73562 0.0615079 1.44983 0.23123C1.16405 0.400953 0.984325 0.644841 0.950208 0.909243C0.91609 1.17364 1.03037 1.4369 1.26791 1.6411L7.52335 7.00059L1.47782 12.3601C1.30669 12.5069 1.19799 12.6856 1.16457 12.8751C1.13116 13.0646 1.17442 13.257 1.28925 13.4296C1.40409 13.6021 1.58568 13.7475 1.81254 13.8485C2.0394 13.9496 2.30204 14.0022 2.56938 13.9999Z" fill="black"/>
</svg>
