<svg width="9" height="14" viewBox="0 0 9 14" fill="none" xmlns="http://www.w3.org/2000/svg">
<path d="M1.91416 13.9999C2.09432 14.0004 2.27234 13.9675 2.43512 13.9034C2.5979 13.8394 2.74131 13.746 2.85482 13.63L8.67969 7.63053C8.85707 7.45162 8.95404 7.22719 8.95404 6.99559C8.95404 6.76399 8.85707 6.53957 8.67969 6.36065L2.6498 0.361218C2.4451 0.157021 2.15095 0.0286085 1.83206 0.0042311C1.51317 -0.0201463 1.19565 0.0615079 0.949373 0.23123C0.703093 0.400953 0.548216 0.644841 0.518815 0.909243C0.489413 1.17364 0.587895 1.4369 0.792596 1.6411L6.18332 7.00059L0.973494 12.3601C0.826023 12.5069 0.732346 12.6856 0.703547 12.8751C0.674749 13.0646 0.712034 13.257 0.810992 13.4296C0.90995 13.6021 1.06644 13.7475 1.26194 13.8485C1.45744 13.9496 1.68377 14.0022 1.91416 13.9999Z" fill="#FFFDFA"/>
</svg>
