<svg width="20" height="20" viewBox="0 0 20 20" fill="none" xmlns="http://www.w3.org/2000/svg">
<path d="M10 3.15975C10.1552 3.15975 10.304 3.0981 10.4138 2.98837C10.5235 2.87863 10.5851 2.7298 10.5851 2.57461V0.585139C10.5851 0.42995 10.5235 0.281118 10.4138 0.171383C10.304 0.0616484 10.1552 0 10 0C9.84482 0 9.69599 0.0616484 9.58625 0.171383C9.47652 0.281118 9.41487 0.42995 9.41487 0.585139V2.57461C9.41487 2.7298 9.47652 2.87863 9.58625 2.98837C9.69599 3.0981 9.84482 3.15975 10 3.15975Z" fill="white"/>
<path d="M10 16.8403C9.84482 16.8403 9.69599 16.902 9.58625 17.0117C9.47652 17.1214 9.41487 17.2703 9.41487 17.4255V19.4149C9.41487 19.5701 9.47652 19.719 9.58625 19.8287C9.69599 19.9384 9.84482 20.0001 10 20.0001C10.1552 20.0001 10.304 19.9384 10.4138 19.8287C10.5235 19.719 10.5851 19.5701 10.5851 19.4149V17.4255C10.5851 17.2703 10.5235 17.1214 10.4138 17.0117C10.304 16.902 10.1552 16.8403 10 16.8403Z" fill="white"/>
<path d="M4.33587 5.16695C4.44468 5.26585 4.58673 5.32017 4.73377 5.31908C4.81078 5.31953 4.88712 5.30477 4.95841 5.27565C5.0297 5.24653 5.09454 5.20362 5.14922 5.14939C5.20406 5.095 5.24759 5.03028 5.2773 4.95898C5.30701 4.88767 5.3223 4.81119 5.3223 4.73394C5.3223 4.6567 5.30701 4.58022 5.2773 4.50891C5.24759 4.43761 5.20406 4.37289 5.14922 4.3185L3.75659 2.93172C3.64465 2.83586 3.50066 2.78576 3.3534 2.79145C3.20613 2.79714 3.06643 2.85819 2.96222 2.9624C2.85801 3.06661 2.79696 3.20631 2.79128 3.35357C2.78559 3.50084 2.83568 3.64482 2.93154 3.75676L4.33587 5.16695Z" fill="white"/>
<path d="M15.6642 14.8332C15.6096 14.7787 15.5448 14.7354 15.4736 14.7059C15.4023 14.6763 15.3259 14.6611 15.2487 14.6611C15.1716 14.6611 15.0952 14.6763 15.0239 14.7059C14.9526 14.7354 14.8878 14.7787 14.8333 14.8332C14.7787 14.8878 14.7354 14.9525 14.7059 15.0238C14.6764 15.0951 14.6612 15.1715 14.6612 15.2487C14.6612 15.3258 14.6764 15.4022 14.7059 15.4735C14.7354 15.5448 14.7787 15.6096 14.8333 15.6641L16.2435 17.0684C16.2977 17.1237 16.3623 17.1677 16.4336 17.1979C16.5049 17.228 16.5815 17.2437 16.6589 17.244C16.8132 17.2418 16.9605 17.1787 17.0685 17.0684C17.1775 16.9588 17.2387 16.8105 17.2387 16.6559C17.2387 16.5013 17.1775 16.353 17.0685 16.2434L15.6642 14.8332Z" fill="white"/>
<path d="M3.15975 10.0002C3.15975 9.84499 3.0981 9.69616 2.98837 9.58642C2.87863 9.47669 2.7298 9.41504 2.57461 9.41504H0.585139C0.42995 9.41504 0.281118 9.47669 0.171383 9.58642C0.0616484 9.69616 0 9.84499 0 10.0002C0 10.1554 0.0616484 10.3042 0.171383 10.4139C0.281118 10.5237 0.42995 10.5853 0.585139 10.5853H2.57461C2.7298 10.5853 2.87863 10.5237 2.98837 10.4139C3.0981 10.3042 3.15975 10.1554 3.15975 10.0002Z" fill="white"/>
<path d="M19.4149 9.41504H17.4254C17.2702 9.41504 17.1214 9.47669 17.0116 9.58642C16.9019 9.69616 16.8402 9.84499 16.8402 10.0002C16.8402 10.1554 16.9019 10.3042 17.0116 10.4139C17.1214 10.5237 17.2702 10.5853 17.4254 10.5853H19.4149C19.57 10.5853 19.7189 10.5237 19.8286 10.4139C19.9384 10.3042 20 10.1554 20 10.0002C20 9.84499 19.9384 9.69616 19.8286 9.58642C19.7189 9.47669 19.57 9.41504 19.4149 9.41504Z" fill="white"/>
<path d="M4.33583 14.8332L2.9315 16.2434C2.84933 16.3249 2.79318 16.4289 2.77013 16.5423C2.74709 16.6557 2.75819 16.7734 2.80203 16.8805C2.84587 16.9876 2.92048 17.0793 3.01644 17.144C3.11239 17.2087 3.22537 17.2435 3.3411 17.244C3.41852 17.2437 3.4951 17.228 3.56641 17.1979C3.63773 17.1677 3.70235 17.1237 3.75655 17.0684L5.16673 15.6641C5.27691 15.5539 5.33882 15.4045 5.33882 15.2487C5.33882 15.0928 5.27691 14.9434 5.16673 14.8332C5.05655 14.723 4.90711 14.6611 4.75128 14.6611C4.59546 14.6611 4.44602 14.723 4.33583 14.8332Z" fill="white"/>
<path d="M15.2662 5.31873C15.3432 5.31917 15.4196 5.30441 15.4909 5.27529C15.5622 5.24617 15.627 5.20327 15.6817 5.14904L17.086 3.73885C17.195 3.62922 17.2562 3.48091 17.2562 3.32633C17.2562 3.17174 17.195 3.02344 17.086 2.91381C16.9764 2.80482 16.8281 2.74365 16.6735 2.74365C16.5189 2.74365 16.3706 2.80482 16.261 2.91381L14.8508 4.31814C14.7959 4.37254 14.7524 4.43725 14.7227 4.50856C14.693 4.57986 14.6777 4.65634 14.6777 4.73359C14.6777 4.81083 14.693 4.88732 14.7227 4.95862C14.7524 5.02992 14.7959 5.09464 14.8508 5.14904C14.9054 5.20327 14.9703 5.24617 15.0416 5.27529C15.1129 5.30441 15.1892 5.31917 15.2662 5.31873Z" fill="white"/>
<path d="M10.0761 4.00244C8.90061 3.98736 7.74721 4.32213 6.76249 4.96421C5.77777 5.60629 5.0062 6.52667 4.54588 7.60836C4.08556 8.69004 3.95727 9.88417 4.17732 11.039C4.39737 12.1937 4.95582 13.257 5.78168 14.0936C6.60754 14.9302 7.66351 15.5023 8.81535 15.7373C9.96719 15.9722 11.1629 15.8594 12.2504 15.4131C13.338 14.9667 14.2682 14.2071 14.923 13.2308C15.5777 12.2544 15.9274 11.1055 15.9275 9.9299C15.9353 8.36862 15.3237 6.86794 14.2268 5.75682C13.13 4.64571 11.6373 4.01481 10.0761 4.00244ZM10.0761 14.6812C9.13185 14.6963 8.2045 14.4301 7.41211 13.9163C6.61972 13.4026 5.99816 12.6647 5.62658 11.7965C5.255 10.9284 5.15021 9.96924 5.32556 9.04132C5.50091 8.1134 5.94846 7.25866 6.61123 6.58596C7.27399 5.91325 8.12197 5.45302 9.04718 5.26388C9.97239 5.07473 10.933 5.16523 11.8066 5.52384C12.6802 5.88246 13.4273 6.49297 13.9527 7.27762C14.4782 8.06227 14.7582 8.98556 14.7572 9.9299C14.7634 11.1798 14.2745 12.3813 13.3973 13.2717C12.52 14.1621 11.3259 14.6689 10.0761 14.6812Z" fill="white"/>
</svg>
