<svg width="49" height="48" viewBox="0 0 49 48" fill="none" xmlns="http://www.w3.org/2000/svg">
<rect x="0.694336" y="0.361328" width="47.6389" height="47.6389" rx="7" fill="#7676E8"/>
<path fill-rule="evenodd" clip-rule="evenodd" d="M17.9672 8.39752C19.6605 8.31957 20.2004 8.30225 24.5139 8.30225C28.8274 8.30225 29.3673 8.32101 31.0592 8.39752C32.7511 8.47403 33.906 8.74399 34.9165 9.1352C35.9747 9.53508 36.9347 10.1602 37.7286 10.9686C38.5371 11.7611 39.1607 12.7197 39.5591 13.7793C39.9518 14.7898 40.2203 15.9447 40.2983 17.6337C40.3762 19.3299 40.3935 19.8698 40.3935 24.1819C40.3935 28.4954 40.3748 29.0353 40.2983 30.7286C40.2217 32.4176 39.9518 33.5725 39.5591 34.583C39.1607 35.6428 38.536 36.6029 37.7286 37.3966C36.9347 38.205 35.9747 38.8287 34.9165 39.2271C33.906 39.6198 32.7511 39.8883 31.0621 39.9662C29.3673 40.0442 28.8274 40.0615 24.5139 40.0615C20.2004 40.0615 19.6605 40.0427 17.9672 39.9662C16.2782 39.8897 15.1233 39.6198 14.1127 39.2271C13.053 38.8286 12.0929 38.204 11.2992 37.3966C10.4913 36.6036 9.86612 35.6439 9.46724 34.5845C9.07602 33.574 8.80751 32.4191 8.72956 30.7301C8.6516 29.0338 8.63428 28.4939 8.63428 24.1819C8.63428 19.8684 8.65304 19.3285 8.72956 17.6366C8.80607 15.9447 9.07602 14.7898 9.46724 13.7793C9.86671 12.7198 10.4924 11.7601 11.3006 10.9671C12.0932 10.1594 13.0524 9.53428 14.1113 9.1352C15.1218 8.74399 16.2767 8.47548 17.9657 8.39752H17.9672ZM30.9307 11.2559C29.2561 11.1793 28.7538 11.1635 24.5139 11.1635C20.274 11.1635 19.7717 11.1793 18.0971 11.2559C16.5481 11.3266 15.7079 11.585 15.1478 11.803C14.4072 12.0917 13.8774 12.4338 13.3217 12.9896C12.7948 13.5022 12.3893 14.1261 12.135 14.8158C11.917 15.3759 11.6586 16.2161 11.5879 17.7651C11.5114 19.4396 11.4955 19.942 11.4955 24.1819C11.4955 28.4217 11.5114 28.9241 11.5879 30.5987C11.6586 32.1477 11.917 32.9879 12.135 33.548C12.3891 34.2366 12.7947 34.8616 13.3217 35.3741C13.8341 35.901 14.4592 36.3067 15.1478 36.5608C15.7079 36.7788 16.5481 37.0372 18.0971 37.1079C19.7717 37.1844 20.2726 37.2003 24.5139 37.2003C28.7552 37.2003 29.2561 37.1844 30.9307 37.1079C32.4797 37.0372 33.3199 36.7788 33.88 36.5608C34.6206 36.272 35.1504 35.9299 35.7062 35.3741C36.2331 34.8616 36.6387 34.2366 36.8928 33.548C37.1108 32.9879 37.3692 32.1477 37.4399 30.5987C37.5164 28.9241 37.5323 28.4217 37.5323 24.1819C37.5323 19.942 37.5164 19.4396 37.4399 17.7651C37.3692 16.2161 37.1108 15.3759 36.8928 14.8158C36.6041 14.0752 36.2619 13.5454 35.7062 12.9896C35.1936 12.4628 34.5696 12.0574 33.88 11.803C33.3199 11.585 32.4797 11.3266 30.9307 11.2559ZM22.4856 29.0771C23.6184 29.5487 24.8797 29.6123 26.0541 29.2572C27.2286 28.9021 28.2433 28.1502 28.925 27.1301C29.6067 26.1099 29.9131 24.8847 29.7918 23.6638C29.6705 22.4428 29.1291 21.3018 28.2601 20.4357C27.7061 19.8821 27.0362 19.4581 26.2987 19.1944C25.5612 18.9307 24.7744 18.8338 23.9949 18.9107C23.2155 18.9876 22.4628 19.2363 21.791 19.639C21.1192 20.0417 20.5451 20.5884 20.1099 21.2396C19.6748 21.8908 19.3894 22.6304 19.2744 23.4052C19.1594 24.1799 19.2175 24.9705 19.4448 25.7201C19.672 26.4696 20.0625 27.1595 20.5883 27.74C21.1142 28.3204 21.7621 28.7771 22.4856 29.0771ZM18.7424 18.4104C19.5003 17.6524 20.4001 17.0512 21.3904 16.641C22.3807 16.2308 23.442 16.0197 24.5139 16.0197C25.5858 16.0197 26.6472 16.2308 27.6374 16.641C28.6277 17.0512 29.5275 17.6524 30.2854 18.4104C31.0434 19.1683 31.6446 20.0681 32.0548 21.0583C32.465 22.0486 32.6761 23.11 32.6761 24.1819C32.6761 25.2537 32.465 26.3151 32.0548 27.3054C31.6446 28.2957 31.0434 29.1955 30.2854 29.9534C28.7547 31.4841 26.6786 32.344 24.5139 32.344C22.3492 32.344 20.2731 31.4841 18.7424 29.9534C17.2117 28.4227 16.3517 26.3466 16.3517 24.1819C16.3517 22.0171 17.2117 19.9411 18.7424 18.4104ZM34.4863 17.2353C34.6741 17.0581 34.8245 16.845 34.9285 16.6087C35.0325 16.3724 35.088 16.1176 35.0918 15.8594C35.0956 15.6012 35.0475 15.3449 34.9504 15.1057C34.8533 14.8664 34.7093 14.6491 34.5267 14.4665C34.3441 14.2839 34.1268 14.1398 33.8875 14.0428C33.6482 13.9457 33.3919 13.8976 33.1338 13.9014C32.8756 13.9051 32.6208 13.9607 32.3845 14.0647C32.1481 14.1687 31.9351 14.319 31.7579 14.5069C31.4133 14.8721 31.2247 15.3573 31.232 15.8594C31.2393 16.3615 31.442 16.841 31.7971 17.1961C32.1522 17.5511 32.6317 17.7538 33.1338 17.7612C33.6359 17.7685 34.121 17.5798 34.4863 17.2353Z" fill="white"/>
</svg>
