<svg width="49" height="48" viewBox="0 0 49 48" fill="none" xmlns="http://www.w3.org/2000/svg">
<rect x="0.75" y="0.361328" width="47.6389" height="47.6389" rx="7" fill="#7676E8"/>
<path d="M12.3419 36.8835H17.1058V19.2571H12.3419V36.8835ZM14.7238 11.4761C13.1358 11.4761 11.8655 12.7464 11.8655 14.3344C11.8655 15.9224 13.1358 17.1927 14.7238 17.1927C16.3118 17.1927 17.5821 15.9224 17.5821 14.3344C17.5821 12.7464 16.3118 11.4761 14.7238 11.4761ZM25.2044 21.9566V19.2571H20.4405V36.8835H25.2044V27.8321C25.2044 22.7506 31.715 22.433 31.715 27.8321V36.8835H36.4789V26.0853C36.4789 17.5103 27.4275 17.8279 25.2044 21.9566Z" fill="white"/>
</svg>
