<svg width="48" height="48" viewBox="0 0 48 48" fill="none" xmlns="http://www.w3.org/2000/svg">
<rect width="47.6389" height="47.6389" rx="7" fill="#7676E8"/>
<path d="M23.8195 24.5002L9.52783 17.1559V15.4261C9.52783 14.9157 9.70462 14.4857 10.0582 14.1359C10.4118 13.7862 10.8305 13.6113 11.3143 13.6113H36.3247C36.8085 13.6113 37.2272 13.7862 37.5808 14.1359C37.9344 14.4857 38.1112 14.9157 38.1112 15.4261V17.1559L23.8195 24.5002ZM22.9263 26.315H24.7127L38.1112 19.2543V33.5743C38.1112 34.0658 37.9344 34.4912 37.5808 34.8503C37.2272 35.2095 36.8085 35.3891 36.3247 35.3891H11.3143C10.8305 35.3891 10.4118 35.2095 10.0582 34.8503C9.70462 34.4912 9.52783 34.0658 9.52783 33.5743V19.2543L22.9263 26.315Z" fill="white"/>
</svg>
