<svg width="49" height="48" viewBox="0 0 49 48" fill="none" xmlns="http://www.w3.org/2000/svg">
<rect x="0.5" y="0.361328" width="47.6389" height="47.6389" rx="7" fill="#7676E8"/>
<path d="M38.6112 15.9633C37.56 16.4529 36.4308 16.7838 35.2438 16.9333C36.4686 16.1629 37.385 14.9503 37.8219 13.5218C36.6711 14.2404 35.4116 14.7461 34.0982 15.0172C33.215 14.0258 32.0451 13.3687 30.7702 13.148C29.4954 12.9272 28.1868 13.155 27.0477 13.7961C25.9086 14.4372 25.0028 15.4556 24.4708 16.6934C23.9387 17.9311 23.8103 19.3189 24.1055 20.6412C21.7737 20.5181 19.4926 19.881 17.4102 18.7712C15.3278 17.6615 13.4907 16.1038 12.0181 14.1994C11.5145 15.1124 11.225 16.1711 11.225 17.2985C11.2244 18.3135 11.4622 19.3129 11.9172 20.2081C12.3722 21.1033 13.0304 21.8666 13.8333 22.4303C12.9021 22.3991 11.9915 22.1346 11.1772 21.6588V21.7382C11.1771 23.1617 11.6455 24.5415 12.503 25.6433C13.3604 26.7451 14.5541 27.5011 15.8815 27.7831C15.0176 28.0288 14.1119 28.065 13.2329 27.8889C13.6074 29.1138 14.3369 30.1849 15.3192 30.9523C16.3016 31.7196 17.4876 32.1449 18.7113 32.1685C16.634 33.8827 14.0686 34.8126 11.4277 34.8085C10.9599 34.8086 10.4924 34.7799 10.0278 34.7225C12.7085 36.5343 15.829 37.4959 19.016 37.4921C29.8043 37.4921 35.702 28.0993 35.702 19.9531C35.702 19.6884 35.6957 19.4211 35.6844 19.1564C36.8315 18.2844 37.8218 17.2044 38.6086 15.9673L38.6112 15.9633Z" fill="white"/>
</svg>
