<svg width="43" height="43" viewBox="0 0 43 43" fill="none" xmlns="http://www.w3.org/2000/svg">
<circle cx="21.5" cy="21.5" r="21.5" fill="#7676E8"/>
<path d="M33 13C32.0424 13.6755 30.9821 14.1921 29.86 14.53C29.2577 13.8375 28.4573 13.3467 27.567 13.1239C26.6767 12.9011 25.7395 12.9572 24.8821 13.2844C24.0247 13.6117 23.2884 14.1944 22.773 14.9537C22.2575 15.713 21.9877 16.6123 22 17.53V18.53C20.2426 18.5756 18.5013 18.1858 16.931 17.3954C15.3607 16.6051 14.0103 15.4386 13 14C13 14 9 23 18 27C15.9405 28.398 13.4872 29.0989 11 29C20 34 31 29 31 17.5C30.9991 17.2214 30.9723 16.9436 30.92 16.67C31.9406 15.6635 32.6608 14.3927 33 13V13Z" stroke="white" stroke-width="2" stroke-linecap="round" stroke-linejoin="round"/>
</svg>
