<svg xmlns="http://www.w3.org/2000/svg" xmlns:xlink="http://www.w3.org/1999/xlink" viewBox="0 0 168.91 137.06"><defs><style>.cls-1{fill:url(#linear-gradient);}.cls-2{fill:#18123c;}.cls-3{fill:#ffca6a;}.cls-4{fill:url(#linear-gradient-2);}.cls-5,.cls-6{fill:none;stroke-miterlimit:10;}.cls-5{stroke:#73cfec;}.cls-6{stroke:#40bfd7;}</style><linearGradient id="linear-gradient" x1="18.11" y1="34.59" x2="71.45" y2="34.59" gradientUnits="userSpaceOnUse"><stop offset="0.03" stop-color="#97d8e8"/><stop offset="0.64" stop-color="#dcecef"/></linearGradient><linearGradient id="linear-gradient-2" x1="66.86" y1="41.69" x2="120.28" y2="41.69" xlink:href="#linear-gradient"/></defs><g id="Layer_2" data-name="Layer 2"><g id="Layer_1-2" data-name="Layer 1"><path class="cls-1" d="M65.89,69.18s14.45-26-3.72-52.36S19-1.17,18,16.29C17.37,28,25.5,48.53,65.89,69.18Z"/><ellipse class="cls-2" cx="68.34" cy="97.95" rx="69.75" ry="36.5" transform="translate(-21.18 18.89) rotate(-13.65)"/><path class="cls-3" d="M58.41,136.55a116.08,116.08,0,0,1-15,.42l.32-5.95A83.8,83.8,0,0,0,30.09,80.49l-3.25-4.95c7-4.08,12-6.61,16.2-7.83h0a112.73,112.73,0,0,1,15.6,65.34Z"/><path class="cls-3" d="M92.53,128.61c-7.45,2.72-5.44,2.23-15.58,4.81,1-17.87-2.41-48-12.23-62.94l-5-8c7.9-1.89,8.13-2.18,18.89-3.16C90.33,79,94.83,100.18,93.27,123Z"/><path class="cls-3" d="M110.67,119.86c1.49-15.68-.84-41.26-10.12-54.07l-4.72-6.86c12.25,1.12,14.48,2.34,18.73,3.57l.38.55c11,16.9,13.19,24.92,11,45h0a64.25,64.25,0,0,1-15.24,11.82Z"/><polygon class="cls-2" points="126.69 73.27 168.91 64.73 132.86 89.39 126.69 73.27"/><path class="cls-4" d="M76.37,74.9a4.31,4.31,0,0,1-6.08-2.28c-3.18-8.54-7.88-28.17,5.82-47.92,18.25-26.28,43.19-17.85,44.14-.39C120.86,35.64,113.25,55.1,76.37,74.9Z"/><line class="cls-5" x1="34.46" y1="12.13" x2="60.72" y2="52.54"/><circle class="cls-6" cx="32.99" cy="10.03" r="2.57"/><circle class="cls-6" cx="62.29" cy="55.11" r="2.57"/><line class="cls-5" x1="48.52" y1="33.76" x2="48.52" y2="17.74"/><polyline class="cls-5" points="56.54 46.5 47.66 48.23 34.42 34.84"/><circle class="cls-6" cx="49.21" cy="14.86" r="2.57"/><circle class="cls-6" cx="32.99" cy="32.28" r="2.57"/><line class="cls-5" x1="104.46" y1="19.08" x2="78.2" y2="59.49"/><circle class="cls-6" cx="105.93" cy="16.98" r="2.57"/><circle class="cls-6" cx="76.63" cy="62.06" r="2.57"/><line class="cls-5" x1="90.4" y1="40.71" x2="90.4" y2="24.68"/><polyline class="cls-5" points="82.38 53.45 91.27 55.18 104.5 41.79"/><circle class="cls-6" cx="89.71" cy="21.81" r="2.57"/><circle class="cls-6" cx="105.93" cy="39.22" r="2.57"/></g></g></svg>