<svg xmlns="http://www.w3.org/2000/svg" xmlns:xlink="http://www.w3.org/1999/xlink" viewBox="0 0 992.87 243.27"><defs><style>.cls-1{fill:#c5ef7b;}.cls-2,.cls-4,.cls-6{fill:#aad576;stroke-linecap:round;stroke-linejoin:round;}.cls-2,.cls-6{stroke:#c5ef7b;}.cls-2,.cls-4{stroke-width:4px;}.cls-3{fill:url(#radial-gradient);}.cls-4{stroke:#ccf492;}.cls-5{fill:url(#radial-gradient-2);}.cls-6{stroke-width:5px;}.cls-7{fill:url(#radial-gradient-3);}.cls-8{fill:#534f84;}.cls-9{fill:#faf3dd;}.cls-10{fill:#ffa69e;}.cls-11{fill:#fffdfa;}</style><radialGradient id="radial-gradient" cx="68.58" cy="109.45" r="17.56" gradientUnits="userSpaceOnUse"><stop offset="0" stop-color="#faf3dd"/><stop offset="0.25" stop-color="#d7ede3"/><stop offset="0.58" stop-color="#b0e6e9"/><stop offset="0.84" stop-color="#99e2ee"/><stop offset="1" stop-color="#90e0ef"/></radialGradient><radialGradient id="radial-gradient-2" cx="277.62" cy="88.96" r="30.65" gradientUnits="userSpaceOnUse"><stop offset="0" stop-color="#faf3dd"/><stop offset="0.2" stop-color="#e0e0e1"/><stop offset="0.55" stop-color="#b9c4e6"/><stop offset="0.83" stop-color="#a2b2ea"/><stop offset="1" stop-color="#99aceb"/></radialGradient><radialGradient id="radial-gradient-3" cx="535.45" cy="53.13" r="38.25" gradientUnits="userSpaceOnUse"><stop offset="0" stop-color="#faf3dd"/><stop offset="0.08" stop-color="#fbead6"/><stop offset="0.48" stop-color="#fdc5b8"/><stop offset="0.8" stop-color="#feaea5"/><stop offset="1" stop-color="#ffa69e"/></radialGradient></defs><g id="Layer_1" data-name="Layer 1"><path class="cls-1" d="M81.54,565.63c1.42-2.46,11.19.53,21.83,6.68s22.24,12.83,20.83,15.28-15.32-.25-26-6.39S80.12,568.08,81.54,565.63Z" transform="translate(-63.38 -421)"/><path class="cls-1" d="M63.68,595.8C65.94,591.9,80.41,596,96,605s32.61,18.81,30.36,22.72-22.92.43-38.52-8.58S61.43,599.71,63.68,595.8Z" transform="translate(-63.38 -421)"/><path class="cls-1" d="M179.51,566.17c-1.41-2.46-11.19.53-21.83,6.67s-22.24,12.84-20.82,15.29,15.31-.25,25.95-6.39S180.93,568.62,179.51,566.17Z" transform="translate(-63.38 -421)"/><path class="cls-1" d="M198.77,595.41c-2.26-3.9-16.73.24-32.33,9.24s-32.61,18.82-30.36,22.72,22.92.43,38.52-8.58S201,599.32,198.77,595.41Z" transform="translate(-63.38 -421)"/><line class="cls-2" x1="68.01" y1="239.33" x2="67.67" y2="127.28"/><polygon class="cls-3" points="85.19 99.61 84.61 120.53 69.19 127.91 52.59 120.53 51.97 120.21 51.97 99.61 69.19 91 85.19 99.61"/><path class="cls-1" d="M276.73,546.61c2-3.48,15.86.76,30.93,9.46s31.5,18.17,29.49,21.65-21.69-.35-36.76-9.06S274.72,550.09,276.73,546.61Z" transform="translate(-63.38 -421)"/><line class="cls-4" x1="277.91" y1="240.96" x2="277.62" y2="121.61"/><path class="cls-1" d="M254.73,578.23c3-5.13,22,.3,42.46,12.13S340,615.07,337.06,620.2s-30.1.56-50.59-11.27S251.77,583.36,254.73,578.23Z" transform="translate(-63.38 -421)"/><polygon class="cls-5" points="306.62 71.78 305.61 108.29 278.69 121.18 249.69 108.29 248.62 107.74 248.62 71.78 278.69 56.74 306.62 71.78"/><path class="cls-1" d="M405,546.22c-2-3.48-15.86.75-30.93,9.45s-31.5,18.18-29.49,21.66,21.69-.36,36.76-9.06S407,549.69,405,546.22Z" transform="translate(-63.38 -421)"/><path class="cls-1" d="M428.73,577.67c-3-5.13-22,.31-42.46,12.14s-42.83,24.7-39.87,29.83,30.1.57,50.59-11.26S431.69,582.8,428.73,577.67Z" transform="translate(-63.38 -421)"/><line class="cls-6" x1="536.79" y1="240.77" x2="536.79" y2="93.34"/><polygon class="cls-7" points="571.64 31.68 570.38 77.25 536.79 93.34 500.6 77.25 499.26 76.56 499.26 31.68 536.79 12.92 571.64 31.68"/><path class="cls-1" d="M703.07,494.9c-3.33-5.77-26.29,1.26-51.29,15.69s-52.26,30.15-48.93,35.91,36-.58,61-15S706.41,500.67,703.07,494.9Z" transform="translate(-63.38 -421)"/><path class="cls-1" d="M497,494.89c3.33-5.77,26.3,1.26,51.3,15.69s52.25,30.14,48.92,35.91-36-.58-61-15S493.62,500.66,497,494.89Z" transform="translate(-63.38 -421)"/><path class="cls-1" d="M722.44,542.47c-4.28-7.41-31.75.44-61.36,17.54s-61.88,35.69-57.6,43.1,43.49.82,73.09-16.27S726.71,549.88,722.44,542.47Z" transform="translate(-63.38 -421)"/><path class="cls-1" d="M478.08,542.67c4.28-7.4,31.75.45,61.36,17.54s61.88,35.69,57.6,43.1S553.55,604.14,524,587,473.8,550.08,478.08,542.67Z" transform="translate(-63.38 -421)"/></g><g id="Layer_2" data-name="Layer 2"><path class="cls-8" d="M802.84,437.31c0,4.81,2.79,9.11,7.23,12.1l3.85-5.92,10.3-15.74,13.1-3.83A27.35,27.35,0,0,0,824.78,421c-11.94,0-21.64,7.09-21.93,15.92C802.84,437.05,802.84,437.18,802.84,437.31Z" transform="translate(-63.38 -421)"/><path class="cls-9" d="M817.47,548.12c4.1,17.94,14.75,29.22,19.12,33.75,13.84,14.31,29,19.2,42.75,23.63,10.57,3.39,19.93,6.41,28.81,6.66a35.68,35.68,0,0,0,7.87-.58,30.6,30.6,0,0,0,5-1.34,29.42,29.42,0,0,0,3.32-1.37,34.53,34.53,0,0,0,3.3-1.8,37.46,37.46,0,0,0,6.23-4.81,45,45,0,0,0,7.35-9.14,43.74,43.74,0,0,0,30.63-21c-5.57.48-11.29.72-17.13.72-55.93,0-101.25-22.67-101.25-50.62a26.84,26.84,0,0,1,2.18-10.5,15.27,15.27,0,0,1-1.88-.22,8.41,8.41,0,0,1-3.68,2.84c-6.11,2.44-15-2.18-22.5-11.25.35-.33.72-.72,1.13-1.13-5.78,4.41-9.45,14-10.13,15.76C813.64,530.69,816.19,542.53,817.47,548.12Z" transform="translate(-63.38 -421)"/><path class="cls-8" d="M1056,589.75c-2.81,5.62-26.89.67-43.88-6.75a103.32,103.32,0,0,1-12.09-6.27l1.18-.54c16.68,4.56,31,6.95,33.41,2.31,1.38-2.62-1.35-6.89-4.61-10.83-1-1.15-2-2.28-2.92-3.35l5.06-.59c1.38,1,2.84,2,4.33,3.15C1046.64,574.59,1058.2,585.28,1056,589.75Z" transform="translate(-63.38 -421)"/><path class="cls-10" d="M1034.6,578.5c-2.44,4.64-16.73,2.25-33.41-2.31,1.89-1,2.87-1.91,3-3.32a4.39,4.39,0,0,0-.31-1.94,10.94,10.94,0,0,0-2.56-3.63c8.55-1,17.13-2,25.71-3,1,1.07,2,2.2,2.92,3.35C1033.25,571.61,1036,575.88,1034.6,578.5Z" transform="translate(-63.38 -421)"/><path class="cls-11" d="M1004.23,572.87c-.17,1.41-1.15,2.37-3,3.32l-1.18.54c-4.11,1.8-11.25,4-21.66,9.64-13.55,7.37-13.83,10.44-23.62,14.63a84,84,0,0,1-21.85,5.88,34,34,0,0,1-5.23.19,36.36,36.36,0,0,0,6.21-4.81,44.73,44.73,0,0,0,7.37-9.14,43.43,43.43,0,0,0,28.63-17.94c.79-1.1,1.43-2.11,2-3a174,174,0,0,0,28.74-4.75l.76-.09a10.94,10.94,0,0,1,2.56,3.63A4.39,4.39,0,0,1,1004.23,572.87Z" transform="translate(-63.38 -421)"/><path class="cls-10" d="M1035.78,549.39,980,567.25l-8.13,4.89h0c-5.57.48-11.28.73-17.1.73-55.94,0-101.25-22.67-101.25-50.62a26.53,26.53,0,0,1,2.17-10.49c10.09.65,20.78-7.57,38.33-10.89,14.23-2.7,26-.28,49.5,4.5A199.08,199.08,0,0,1,989.6,520c18.48,8.58,31.56,18.31,41.63,25.87Z" transform="translate(-63.38 -421)"/><path class="cls-8" d="M827.59,503.12c7.46,9.07,16.39,13.69,22.5,11.25a8.41,8.41,0,0,0,3.68-2.84c2.57-3.37,3.79-9,5.32-16.28,3-14.47,5.93-28.32-1.12-43.88a107.66,107.66,0,0,0-8.84-16,53.19,53.19,0,0,0-10.55-10.75C825.37,438,827,447.9,828.72,451.37a16.23,16.23,0,0,0,1.06,1.83c2.36,3.47,4.59,2.91,7.74,7.4a31.93,31.93,0,0,1,2.45,4.27c3.26,6.71.76,14.44-1.13,20.25A44.44,44.44,0,0,1,828.72,502C828.31,502.4,827.94,502.79,827.59,503.12Z" transform="translate(-63.38 -421)"/><path class="cls-8" d="M785.89,453.91l22.84-2.47,4.11-.45a21.22,21.22,0,0,1-2.77-1.58c-4.44-3-7.23-7.29-7.23-12.1,0-.13,0-.26,0-.39l-18.39,13.25A2.07,2.07,0,0,0,785.89,453.91Z" transform="translate(-63.38 -421)"/><path class="cls-11" d="M810.07,449.41a21.22,21.22,0,0,0,2.77,1.58,27.46,27.46,0,0,0,11.94,2.63,29.17,29.17,0,0,0,5-.42,16.23,16.23,0,0,1-1.06-1.83c-1.73-3.47-3.35-13.37,9.86-26.74-.4-.24-.83-.48-1.26-.71l-13.1,3.83-10.3,15.74Z" transform="translate(-63.38 -421)"/><path class="cls-8" d="M913.09,653.87l9,3.38,10.79-50.37a32.84,32.84,0,0,1-5.24.19,34.53,34.53,0,0,1-3.3,1.8,29.42,29.42,0,0,1-3.32,1.37l-3.38,18.62Z" transform="translate(-63.38 -421)"/><path class="cls-8" d="M905.22,655l7.87-1.13,4.55-25L916,611.58a35.68,35.68,0,0,1-7.87.58l2.69,26Z" transform="translate(-63.38 -421)"/><path class="cls-8" d="M1045.41,557.29a2.91,2.91,0,0,1-1.58,5.09l-11.7,1.35-5.06.59c-8.58,1-17.16,2-25.71,3l-.76.09a174,174,0,0,1-28.74,4.75l7.83-4.72a3.46,3.46,0,0,1,.62-.28l55.47-17.75c.74.59,1.44,1.12,2.14,1.69C1040.69,553.28,1043.19,555.37,1045.41,557.29Z" transform="translate(-63.38 -421)"/><path class="cls-8" d="M888,653.52,919.89,649a1.1,1.1,0,0,1,1.24.88l2.28,11.4a1.11,1.11,0,0,1-1.3,1.31l-34.22-6.85A1.11,1.11,0,0,1,888,653.52Z" transform="translate(-63.38 -421)"/></g></svg>