<svg id="Layer_1" data-name="Layer 1" xmlns="http://www.w3.org/2000/svg" xmlns:xlink="http://www.w3.org/1999/xlink" viewBox="0 0 659.62 230.35"><defs><style>.cls-1{fill:#c5ef7b;}.cls-2,.cls-4,.cls-6{fill:#aad576;stroke-linecap:round;stroke-linejoin:round;}.cls-2,.cls-6{stroke:#c5ef7b;}.cls-2,.cls-4{stroke-width:4px;}.cls-3{fill:url(#radial-gradient);}.cls-4{stroke:#ccf492;}.cls-5{fill:url(#radial-gradient-2);}.cls-6{stroke-width:5px;}.cls-7{fill:url(#radial-gradient-3);}</style><radialGradient id="radial-gradient" cx="68.58" cy="96.53" r="17.56" gradientUnits="userSpaceOnUse"><stop offset="0" stop-color="#faf3dd"/><stop offset="0.25" stop-color="#d7ede3"/><stop offset="0.58" stop-color="#b0e6e9"/><stop offset="0.84" stop-color="#99e2ee"/><stop offset="1" stop-color="#90e0ef"/></radialGradient><radialGradient id="radial-gradient-2" cx="277.62" cy="76.04" r="30.65" gradientUnits="userSpaceOnUse"><stop offset="0" stop-color="#faf3dd"/><stop offset="0.2" stop-color="#e0e0e1"/><stop offset="0.55" stop-color="#b9c4e6"/><stop offset="0.83" stop-color="#a2b2ea"/><stop offset="1" stop-color="#99aceb"/></radialGradient><radialGradient id="radial-gradient-3" cx="535.45" cy="40.21" r="38.25" gradientUnits="userSpaceOnUse"><stop offset="0" stop-color="#faf3dd"/><stop offset="0.08" stop-color="#fbead6"/><stop offset="0.48" stop-color="#fdc5b8"/><stop offset="0.8" stop-color="#feaea5"/><stop offset="1" stop-color="#ffa69e"/></radialGradient></defs><path class="cls-1" d="M81.54,565.63c1.42-2.46,11.19.53,21.83,6.68s22.24,12.83,20.83,15.28-15.32-.25-26-6.39S80.12,568.08,81.54,565.63Z" transform="translate(-63.38 -433.92)"/><path class="cls-1" d="M63.68,595.8C65.94,591.9,80.41,596,96,605s32.61,18.81,30.36,22.72-22.92.43-38.52-8.58S61.43,599.71,63.68,595.8Z" transform="translate(-63.38 -433.92)"/><path class="cls-1" d="M179.51,566.17c-1.41-2.46-11.19.53-21.83,6.67s-22.24,12.84-20.82,15.29,15.31-.25,25.95-6.39S180.93,568.62,179.51,566.17Z" transform="translate(-63.38 -433.92)"/><path class="cls-1" d="M198.77,595.41c-2.26-3.9-16.73.24-32.33,9.24s-32.61,18.82-30.36,22.72,22.92.43,38.52-8.58S201,599.32,198.77,595.41Z" transform="translate(-63.38 -433.92)"/><line class="cls-2" x1="68.01" y1="226.41" x2="67.67" y2="114.36"/><polygon class="cls-3" points="85.19 86.69 84.61 107.61 69.19 114.99 52.59 107.61 51.97 107.28 51.97 86.69 69.19 78.08 85.19 86.69"/><path class="cls-1" d="M276.73,546.61c2-3.48,15.86.76,30.93,9.46s31.5,18.17,29.49,21.65-21.69-.35-36.76-9.06S274.72,550.09,276.73,546.61Z" transform="translate(-63.38 -433.92)"/><line class="cls-4" x1="277.91" y1="228.04" x2="277.62" y2="108.69"/><path class="cls-1" d="M254.73,578.23c3-5.13,22,.3,42.46,12.13S340,615.07,337.06,620.2s-30.1.56-50.59-11.27S251.77,583.36,254.73,578.23Z" transform="translate(-63.38 -433.92)"/><polygon class="cls-5" points="306.62 58.85 305.61 95.37 278.69 108.26 249.69 95.37 248.62 94.81 248.62 58.85 278.69 43.82 306.62 58.85"/><path class="cls-1" d="M405,546.22c-2-3.48-15.86.75-30.93,9.45s-31.5,18.18-29.49,21.66,21.69-.36,36.76-9.06S407,549.69,405,546.22Z" transform="translate(-63.38 -433.92)"/><path class="cls-1" d="M428.73,577.67c-3-5.13-22,.31-42.46,12.14s-42.83,24.7-39.87,29.83,30.1.57,50.59-11.26S431.69,582.8,428.73,577.67Z" transform="translate(-63.38 -433.92)"/><line class="cls-6" x1="536.79" y1="227.85" x2="536.79" y2="80.42"/><polygon class="cls-7" points="571.64 18.76 570.38 64.33 536.79 80.42 500.6 64.33 499.26 63.64 499.26 18.76 536.79 0 571.64 18.76"/><path class="cls-1" d="M703.07,494.9c-3.33-5.77-26.29,1.26-51.29,15.69s-52.26,30.15-48.93,35.91,36-.58,61-15S706.41,500.67,703.07,494.9Z" transform="translate(-63.38 -433.92)"/><path class="cls-1" d="M497,494.89c3.33-5.77,26.3,1.26,51.3,15.69s52.25,30.14,48.92,35.91-36-.58-61-15S493.62,500.66,497,494.89Z" transform="translate(-63.38 -433.92)"/><path class="cls-1" d="M722.44,542.47c-4.28-7.41-31.75.44-61.36,17.54s-61.88,35.69-57.6,43.1,43.49.82,73.09-16.27S726.71,549.88,722.44,542.47Z" transform="translate(-63.38 -433.92)"/><path class="cls-1" d="M478.08,542.67c4.28-7.4,31.75.45,61.36,17.54s61.88,35.69,57.6,43.1S553.55,604.14,524,587,473.8,550.08,478.08,542.67Z" transform="translate(-63.38 -433.92)"/></svg>