<svg xmlns="http://www.w3.org/2000/svg" xmlns:xlink="http://www.w3.org/1999/xlink" viewBox="0 0 226.04 203.63"><defs><style>.cls-1{fill:url(#linear-gradient);}.cls-2,.cls-3{fill:none;stroke-miterlimit:10;}.cls-2{stroke:#009444;}.cls-3{stroke:#006838;}.cls-4{fill:#009444;}.cls-5{fill:url(#linear-gradient-2);}.cls-6{fill:url(#linear-gradient-3);}</style><linearGradient id="linear-gradient" x1="107.3" y1="-29.08" x2="123.97" y2="219.47" gradientUnits="userSpaceOnUse"><stop offset="0" stop-color="#eef4d7"/><stop offset="1" stop-color="#aad376"/></linearGradient><linearGradient id="linear-gradient-2" x1="166.03" y1="123.56" x2="182.7" y2="372.12" gradientTransform="translate(-222.63 7.02) rotate(-33.24)" xlink:href="#linear-gradient"/><linearGradient id="linear-gradient-3" x1="88.07" y1="-60.77" x2="-101.56" y2="100.78" gradientTransform="matrix(0.84, 0.54, -0.54, 0.84, 168.92, 104.25)" xlink:href="#linear-gradient"/></defs><g id="Layer_2" data-name="Layer 2"><g id="Layer_1-2" data-name="Layer 1"><path class="cls-1" d="M112.93,0S64.53,31.46,80.87,111.94s44.84,91.11,44.84,91.11,27.44-27.35,28-92S112.93,0,112.93,0"/><line class="cls-2" x1="111.77" y1="26.02" x2="123.86" y2="182.09"/><circle class="cls-3" cx="139.45" cy="135.61" r="2.57"/><line class="cls-2" x1="119.42" y1="118.42" x2="133.54" y2="94.4"/><polyline class="cls-2" points="119.8 133.8 102.47 127.14 94.69 110.41"/><circle class="cls-3" cx="134.38" cy="91.83" r="2.57"/><circle class="cls-3" cx="93.34" cy="107.84" r="2.57"/><polyline class="cls-2" points="115.59 73.93 123.86 68.94 126.48 43.64"/><line class="cls-2" x1="121.35" y1="149.71" x2="137.6" y2="137.83"/><polyline class="cls-2" points="116.82 91.18 106.57 91.18 93.34 57.29"/><circle class="cls-3" cx="92.13" cy="54.72" r="2.57"/><circle class="cls-3" cx="126.48" cy="40.73" r="2.57"/><circle class="cls-3" cx="123.92" cy="184.66" r="2.57"/><circle class="cls-3" cx="111.44" cy="23.45" r="2.57"/><circle class="cls-3" cx="106.18" cy="157.5" r="2.57"/><line class="cls-2" x1="108.75" y1="158.86" x2="122.08" y2="163.59"/><path class="cls-4" d="M9.22,37.81s-24.11,52.45,32.7,111.76,86.57,53.07,86.57,53.07,8.59-37.78-25.44-92.69S9.22,37.81,9.22,37.81Z"/><path class="cls-4" d="M221.79,20.78s-57.72.45-87.29,77.07-11.26,100.92-11.26,100.92,37.84-8.27,73.1-62.4S221.79,20.78,221.79,20.78"/><path class="cls-5" d="M4.61,40.58s-23.23,52.84,34.56,111.2,87.45,51.61,87.45,51.61,8-37.91-27-92.25-95-70.56-95-70.56"/><line class="cls-2" x1="17.91" y1="62.97" x2="113.58" y2="186.88"/><circle class="cls-3" cx="108.6" cy="149.29" r="2.57"/><line class="cls-2" x1="74.97" y1="136.06" x2="73.61" y2="108.23"/><circle class="cls-3" cx="72.9" cy="105.62" r="2.57"/><polyline class="cls-2" points="47.37 100.95 51.55 92.24 39.88 69.65"/><line class="cls-2" x1="101.2" y1="171" x2="108.28" y2="152.16"/><polyline class="cls-2" points="67.32 127.27 58.74 132.89 29.1 111.8"/><circle class="cls-3" cx="26.68" cy="110.32" r="2.57"/><circle class="cls-3" cx="38.28" cy="67.21" r="2.57"/><circle class="cls-3" cx="115.04" cy="188.99" r="2.57"/><circle class="cls-3" cx="16.23" cy="61" r="2.57"/><circle class="cls-3" cx="72.9" cy="159.39" r="2.57"/><line class="cls-2" x1="75.8" y1="159.12" x2="89.54" y2="155.77"/><path class="cls-6" d="M224.79,25.41s-57.72.46-87.29,77.07S126.23,203.4,126.23,203.4s37.85-8.27,73.11-62.4S224.79,25.41,224.79,25.41"/><line class="cls-2" x1="210.24" y1="45.47" x2="136.39" y2="183.49"/><line class="cls-2" x1="159.46" y1="140.96" x2="184.29" y2="128.32"/><circle class="cls-3" cx="186.86" cy="126.61" r="2.57"/><polyline class="cls-2" points="187.66 87.9 197.31 88.14 210.24 71.9"/><polyline class="cls-2" points="170.5 119.74 163.14 100.51 173.77 72.65"/><circle class="cls-3" cx="174.44" cy="70.08" r="2.57"/><circle class="cls-3" cx="211.62" cy="70.08" r="2.57"/><circle class="cls-3" cx="135.06" cy="185.69" r="2.57"/><circle class="cls-3" cx="211.34" cy="43.13" r="2.57"/><circle class="cls-3" cx="141.26" cy="137.93" r="2.57"/><line class="cls-2" x1="141.65" y1="140.96" x2="144.85" y2="166.95"/></g></g></svg>