<svg id="Layer_4" data-name="Layer 4" xmlns="http://www.w3.org/2000/svg" viewBox="0 0 662.24 586.71"><defs><style>.cls-1{fill:#534f84;}.cls-2{fill:#faf3dd;}.cls-3{fill:#ffa69e;}.cls-4{fill:#fffdfa;}</style></defs><path class="cls-1" d="M286.11,286.53c0,11.67,6.78,22.13,17.54,29.37L313,301.53l25-38.22L369.86,254a66.41,66.41,0,0,0-30.47-7.11c-29,0-52.57,17.22-53.25,38.66C286.11,285.9,286.11,286.2,286.11,286.53Z" transform="translate(-239.35 -246.91)"/><path class="cls-2" d="M321.63,555.66c10,43.56,35.82,71,46.45,82,33.61,34.76,70.39,46.62,103.83,57.38,25.66,8.25,48.39,15.58,70,16.18A87.66,87.66,0,0,0,561,709.8a82.11,82.11,0,0,0,20.22-6.59,82.45,82.45,0,0,0,8-4.37,90.42,90.42,0,0,0,15.13-11.7A109.46,109.46,0,0,0,622.19,665,106.31,106.31,0,0,0,696.59,614c-13.53,1.14-27.43,1.75-41.62,1.75-135.82,0-245.9-55.06-245.9-123a65.15,65.15,0,0,1,5.3-25.49,36,36,0,0,1-4.57-.55,20.6,20.6,0,0,1-8.93,6.92c-14.84,5.92-36.53-5.31-54.65-27.33.85-.82,1.75-1.75,2.73-2.76-14,10.71-22.95,34-24.59,38.28C312.34,513.31,318.52,542.09,321.63,555.66Z" transform="translate(-239.35 -246.91)"/><path class="cls-1" d="M900.92,656.76c-6.83,13.66-65.31,1.64-106.56-16.39A248.71,248.71,0,0,1,765,625.13c1.1-.47,2-.88,2.87-1.29,40.51,11.06,75.21,16.87,81.15,5.6,3.35-6.35-3.28-16.74-11.2-26.3-2.32-2.8-4.78-5.53-7.1-8.13L843,593.58c3.35,2.32,6.9,4.91,10.52,7.65C878.24,619.94,906.31,645.9,900.92,656.76Z" transform="translate(-239.35 -246.91)"/><path class="cls-3" d="M849,629.44c-5.94,11.27-40.64,5.46-81.15-5.6,4.58-2.33,7-4.65,7.38-8.06a10.69,10.69,0,0,0-.75-4.72,26.62,26.62,0,0,0-6.22-8.81c20.77-2.39,41.6-4.85,62.44-7.24,2.32,2.6,4.78,5.33,7.1,8.13C845.72,612.7,852.35,623.09,849,629.44Z" transform="translate(-239.35 -246.91)"/><path class="cls-4" d="M775.23,615.78c-.41,3.41-2.8,5.73-7.38,8.06-.89.41-1.77.82-2.87,1.29-10,4.38-27.32,9.64-52.59,23.43-32.93,17.9-33.61,25.35-57.38,35.52-15,6.36-35.93,12.5-53.08,14.28a82.67,82.67,0,0,1-12.7.48,89.58,89.58,0,0,0,15.09-11.68,109.94,109.94,0,0,0,17.9-22.2,105.51,105.51,0,0,0,69.54-43.58c1.91-2.67,3.48-5.13,4.85-7.38a424.83,424.83,0,0,0,69.81-11.54l1.84-.21a26.62,26.62,0,0,1,6.22,8.81A10.69,10.69,0,0,1,775.23,615.78Z" transform="translate(-239.35 -246.91)"/><path class="cls-3" d="M851.87,558.74,716.35,602.11,696.61,614h-.07c-13.53,1.16-27.39,1.78-41.53,1.78-135.87,0-245.91-55.06-245.91-123a64.63,64.63,0,0,1,5.26-25.48c24.52,1.57,50.48-18.37,93.1-26.43,34.56-6.56,63.12-.69,120.22,10.93,24.46,5,64.21,13.38,112,35.52,44.88,20.83,76.64,44.47,101.09,62.84C844.63,553.14,848.32,556,851.87,558.74Z" transform="translate(-239.35 -246.91)"/><path class="cls-1" d="M346.22,446.37c18.12,22,39.81,33.25,54.65,27.33a20.6,20.6,0,0,0,8.93-6.92C416,458.61,419,445,422.73,427.25c7.35-35.14,14.4-68.78-2.74-106.56a259.9,259.9,0,0,0-21.47-38.86c-8.85-13-25.11-26.09-25.6-26.09-32.11,32.46-28.17,56.5-24,64.95a41,41,0,0,0,2.57,4.42c5.74,8.44,11.15,7.08,18.8,18a75.53,75.53,0,0,1,6,10.38c7.92,16.29,1.86,35.06-2.73,49.18a107.6,107.6,0,0,1-24.6,41C348,444.62,347.07,445.55,346.22,446.37Z" transform="translate(-239.35 -246.91)"/><path class="cls-1" d="M244.93,326.83l55.47-6,10-1.09a53.33,53.33,0,0,1-6.75-3.86c-10.76-7.24-17.54-17.7-17.54-29.37,0-.33,0-.63,0-1l-44.68,32.19A5,5,0,0,0,244.93,326.83Z" transform="translate(-239.35 -246.91)"/><path class="cls-4" d="M303.65,315.9a53.33,53.33,0,0,0,6.75,3.86,66.84,66.84,0,0,0,29,6.39,70.55,70.55,0,0,0,12.13-1,41,41,0,0,1-2.57-4.42c-4.2-8.45-8.14-32.49,24-64.95-1-.6-2-1.18-3.06-1.72L338,263.31l-25,38.22Z" transform="translate(-239.35 -246.91)"/><path class="cls-1" d="M553.88,812.5l21.86,8.2,26.2-122.33a78,78,0,0,1-12.73.47,82.45,82.45,0,0,1-8,4.37,75.75,75.75,0,0,1-8.06,3.33l-8.22,45.22Z" transform="translate(-239.35 -246.91)"/><path class="cls-1" d="M534.75,815.24l19.13-2.74,11-60.74-3.94-42a87.66,87.66,0,0,1-19.1,1.39l6.53,63.06Z" transform="translate(-239.35 -246.91)"/><path class="cls-1" d="M875.26,577.92a7.07,7.07,0,0,1-3.85,12.37L843,593.58,830.7,595c-20.84,2.39-41.67,4.85-62.44,7.24l-1.84.21A424.83,424.83,0,0,1,696.61,614l19-11.46a7.42,7.42,0,0,1,1.49-.68l134.74-43.12c1.78,1.43,3.48,2.73,5.19,4.1C863.77,568.2,869.85,573.27,875.26,577.92Z" transform="translate(-239.35 -246.91)"/><path class="cls-1" d="M492.82,811.65l77.56-11.08a2.69,2.69,0,0,1,3,2.13l5.54,27.7a2.69,2.69,0,0,1-3.17,3.17L492.67,817A2.69,2.69,0,0,1,492.82,811.65Z" transform="translate(-239.35 -246.91)"/></svg>