<?xml version="1.0" encoding="utf-8"?>
<!-- Generator: Adobe Illustrator 25.2.1, SVG Export Plug-In . SVG Version: 6.00 Build 0)  -->
<svg version="1.1" id="Layer_1" xmlns="http://www.w3.org/2000/svg" xmlns:xlink="http://www.w3.org/1999/xlink" x="0px" y="0px"
	 viewBox="0 0 496.2 301.5" style="enable-background:new 0 0 496.2 301.5;" xml:space="preserve">
<style type="text/css">
	.st0{fill:url(#SVGID_1_);}
	.st1{fill:#3D3D75;}
	.st2{fill:#FFCA6A;}
	.st3{fill:url(#SVGID_2_);}
	.st4{fill:none;stroke:#73CFEC;stroke-miterlimit:10;}
	.st5{fill:none;stroke:#40BFD7;stroke-miterlimit:10;}
	.st6{fill:url(#SVGID_3_);}
	.st7{fill:none;stroke:#009444;stroke-miterlimit:10;}
	.st8{fill:none;stroke:#006838;stroke-miterlimit:10;}
	.st9{fill:#009444;}
	.st10{fill:url(#SVGID_4_);}
	.st11{fill:url(#SVGID_5_);}
</style>
<g id="Layer_2_1_">
	<g id="Layer_1-2">
		
			<linearGradient id="SVGID_1_" gradientUnits="userSpaceOnUse" x1="363.34" y1="273.4933" x2="410.3331" y2="273.4933" gradientTransform="matrix(1 0 0 -1 0 304)">
			<stop  offset="3.000000e-02" style="stop-color:#97D8E8"/>
			<stop  offset="0.64" style="stop-color:#DCECEF"/>
		</linearGradient>
		<path class="st0" d="M405.4,61c0,0,12.7-23-3.3-46.2s-38-15.9-38.9-0.5C362.7,24.7,369.9,42.8,405.4,61z"/>
		<ellipse transform="matrix(0.9718 -0.236 0.236 0.9718 -8.855 98.624)" class="st1" cx="407.6" cy="86.3" rx="61.5" ry="32.2"/>
		<path class="st2" d="M398.8,120.3c-4.4,0.4-8.8,0.5-13.2,0.4l0.3-5.2c0.9-15.7-3.3-31.3-12-44.5l-2.9-4.4
			c6.1-3.6,10.6-5.8,14.3-6.9l0,0c10.3,17.3,15.1,37.4,13.8,57.6L398.8,120.3z"/>
		<path class="st2" d="M428.9,113.3c-6.6,2.4-4.8,2-13.7,4.2c0.9-15.7-2.1-42.3-10.8-55.5l-4.4-7c7-1.7,7.2-1.9,16.6-2.8
			c10.3,17.3,14.3,36,12.9,56.1L428.9,113.3z"/>
		<path class="st2" d="M444.9,105.6c1.3-13.8-0.7-36.3-8.9-47.6l-4.1-6c10.8,1,12.8,2.1,16.5,3.2l0.3,0.5c9.7,14.9,11.6,22,9.7,39.6
			l0,0C454.4,99.4,449.9,102.9,444.9,105.6L444.9,105.6z"/>
		<polygon class="st1" points="459,64.6 496.2,57 464.5,78.8 		"/>
		
			<linearGradient id="SVGID_2_" gradientUnits="userSpaceOnUse" x1="406.2758" y1="267.2662" x2="453.3593" y2="267.2662" gradientTransform="matrix(1 0 0 -1 0 304)">
			<stop  offset="3.000000e-02" style="stop-color:#97D8E8"/>
			<stop  offset="0.64" style="stop-color:#DCECEF"/>
		</linearGradient>
		<path class="st3" d="M414.7,66c-1.8,1-4.1,0.3-5.1-1.5c-0.1-0.2-0.2-0.3-0.2-0.5c-2.8-7.5-7-24.8,5.1-42.2
			c16.1-23.2,38.1-15.8,38.9-0.4C453.9,31.4,447.2,48.5,414.7,66z"/>
		<line class="st4" x1="377.7" y1="10.7" x2="400.9" y2="46.3"/>
		<circle class="st5" cx="376.5" cy="8.8" r="2.3"/>
		<circle class="st5" cx="402.3" cy="48.6" r="2.3"/>
		<line class="st4" x1="390.1" y1="29.8" x2="390.1" y2="15.6"/>
		<polyline class="st4" points="397.2,41 389.4,42.5 377.7,30.7 		"/>
		<circle class="st5" cx="390.7" cy="13.1" r="2.3"/>
		<circle class="st5" cx="376.5" cy="28.4" r="2.3"/>
		<line class="st4" x1="439.4" y1="16.8" x2="416.3" y2="52.4"/>
		<circle class="st5" cx="440.7" cy="15" r="2.3"/>
		<circle class="st5" cx="414.9" cy="54.7" r="2.3"/>
		<line class="st4" x1="427" y1="35.9" x2="427" y2="21.8"/>
		<polyline class="st4" points="420,47.1 427.8,48.6 439.5,36.8 		"/>
		<circle class="st5" cx="426.4" cy="19.2" r="2.3"/>
		<circle class="st5" cx="440.7" cy="34.6" r="2.3"/>
		
			<linearGradient id="SVGID_3_" gradientUnits="userSpaceOnUse" x1="127.7504" y1="279.5793" x2="147.5904" y2="-16.3507" gradientTransform="matrix(1 0 0 -1 0 304)">
			<stop  offset="0" style="stop-color:#EEF4D7"/>
			<stop  offset="1" style="stop-color:#AAD376"/>
		</linearGradient>
		<path class="st6" d="M134.4,59c0,0-57.6,37.5-38.2,133.3s53.4,108.5,53.4,108.5s32.7-32.6,33.3-109.5S134.4,59,134.4,59"/>
		<line class="st7" x1="133.1" y1="90" x2="147.5" y2="275.8"/>
		<circle class="st8" cx="166" cy="220.5" r="3.1"/>
		<line class="st7" x1="142.2" y1="200" x2="159" y2="171.4"/>
		<polyline class="st7" points="142.6,218.3 122,210.4 112.8,190.5 		"/>
		<circle class="st8" cx="160" cy="168.4" r="3.1"/>
		<circle class="st8" cx="111.1" cy="187.4" r="3.1"/>
		<polyline class="st7" points="137.6,147.1 147.5,141.1 150.6,111 		"/>
		<line class="st7" x1="144.5" y1="237.3" x2="163.8" y2="223.1"/>
		<polyline class="st7" points="139.1,167.6 126.9,167.6 111.1,127.2 		"/>
		<circle class="st8" cx="109.7" cy="124.2" r="3.1"/>
		<circle class="st8" cx="150.6" cy="107.5" r="3.1"/>
		<circle class="st8" cx="147.5" cy="278.9" r="3.1"/>
		<circle class="st8" cx="132.7" cy="87" r="3.1"/>
		<circle class="st8" cx="126.4" cy="246.6" r="3.1"/>
		<line class="st7" x1="129.5" y1="248.2" x2="145.4" y2="253.8"/>
		<path class="st9" d="M11,104.1c0,0-28.7,62.4,38.9,133.1S153,300.3,153,300.3s10.2-45-30.3-110.4S11,104.1,11,104.1z"/>
		<path class="st9" d="M264.1,83.8c0,0-68.7,0.5-103.9,91.8s-13.4,120.2-13.4,120.2s45.1-9.9,87-74.3S264,83.8,264.1,83.8"/>
		
			<linearGradient id="SVGID_4_" gradientUnits="userSpaceOnUse" x1="-428.4777" y1="-174.7992" x2="-408.6377" y2="-470.7292" gradientTransform="matrix(0.8364 -0.5481 -0.5481 -0.8364 243.4884 -298.9968)">
			<stop  offset="0" style="stop-color:#EEF4D7"/>
			<stop  offset="1" style="stop-color:#AAD376"/>
		</linearGradient>
		<path class="st10" d="M5.5,107.3c0,0-27.7,62.9,41.1,132.4s104.1,61.5,104.1,61.5s9.5-45.1-32.1-109.8S5.5,107.4,5.5,107.3"/>
		<line class="st7" x1="21.3" y1="134" x2="135.2" y2="281.5"/>
		<circle class="st8" cx="129.3" cy="236.8" r="3.1"/>
		<line class="st7" x1="89.3" y1="221" x2="87.6" y2="187.9"/>
		<circle class="st8" cx="86.8" cy="184.8" r="3.1"/>
		<polyline class="st7" points="56.4,179.2 61.4,168.9 47.5,142 		"/>
		<line class="st7" x1="120.5" y1="262.6" x2="128.9" y2="240.2"/>
		<polyline class="st7" points="80.2,210.6 69.9,217.3 34.7,192.1 		"/>
		<circle class="st8" cx="31.8" cy="190.4" r="3.1"/>
		<circle class="st8" cx="45.6" cy="139.1" r="3.1"/>
		<circle class="st8" cx="137" cy="284.1" r="3.1"/>
		<circle class="st8" cx="19.3" cy="131.7" r="3.1"/>
		<circle class="st8" cx="86.8" cy="248.8" r="3.1"/>
		<line class="st7" x1="90.2" y1="248.5" x2="106.6" y2="244.5"/>
		
			<linearGradient id="SVGID_5_" gradientUnits="userSpaceOnUse" x1="473.7666" y1="877.3988" x2="247.9866" y2="685.0588" gradientTransform="matrix(0.84 0.54 0.54 -0.84 -543.61 660.22)">
			<stop  offset="0" style="stop-color:#EEF4D7"/>
			<stop  offset="1" style="stop-color:#AAD376"/>
		</linearGradient>
		<path class="st11" d="M267.6,89.3c0,0-68.7,0.5-103.9,91.8s-13.4,120.2-13.4,120.2s45.1-9.9,87-74.3S267.6,89.3,267.6,89.3"/>
		<line class="st7" x1="250.3" y1="113.2" x2="162.4" y2="277.5"/>
		<line class="st7" x1="189.9" y1="226.9" x2="219.4" y2="211.8"/>
		<circle class="st8" cx="222.5" cy="209.8" r="3.1"/>
		<polyline class="st7" points="223.4,163.7 234.9,164 250.3,144.6 		"/>
		<polyline class="st7" points="203,201.6 194.2,178.7 206.9,145.5 		"/>
		<circle class="st8" cx="207.7" cy="142.5" r="3.1"/>
		<circle class="st8" cx="252" cy="142.5" r="3.1"/>
		<circle class="st8" cx="160.8" cy="280.1" r="3.1"/>
		<circle class="st8" cx="251.6" cy="110.4" r="3.1"/>
		<circle class="st8" cx="168.2" cy="223.3" r="3.1"/>
		<line class="st7" x1="168.6" y1="226.9" x2="172.5" y2="257.8"/>
	</g>
</g>
</svg>
