<svg width="792" height="468" viewBox="0 0 792 468" fill="none" xmlns="http://www.w3.org/2000/svg">
<path d="M42.8527 149.066L41.9867 148.663C32.3777 144.212 24.6207 137.756 19.5537 129.98C7.40674 111.337 7.00473 92.0868 6.58173 71.7008C6.54873 70.1558 6.51673 68.6068 6.47873 67.0558L6.42773 64.9468H79.2347L79.1867 67.0558C79.1487 68.6168 79.1107 70.1748 79.0837 71.7278C78.6537 92.1028 78.2497 111.348 66.1057 129.98C61.0527 137.74 53.3117 144.196 43.7167 148.663L42.8527 149.066Z" fill="white"/>
<path d="M42.6851 90.0479L14.1571 112.506C9.57208 98.3019 9.70208 83.4579 9.33008 68.3379H75.8861C75.5181 83.4929 75.6871 98.2799 71.0721 112.517L42.6851 90.0479Z" fill="#FFD74F"/>
<path d="M65.7825 124.625C65.0795 125.874 64.3295 127.117 63.5225 128.354C58.4505 136.147 50.9115 141.909 42.6255 145.757C34.3055 141.909 26.7685 136.147 21.6955 128.354C20.9045 127.144 19.4805 124.711 19.4805 124.711L42.6855 106.192L65.7825 124.625Z" fill="#FFD74F"/>
<path d="M23.1564 79.7356C19.7844 79.0226 16.7844 76.5176 17.5084 73.3366C17.5164 73.3046 17.3794 72.5136 17.0884 72.4056C17.0644 72.3946 17.0184 72.3056 16.9674 72.2926C16.8414 72.2596 16.7334 72.2036 16.6254 72.1256C16.5884 72.0986 16.4294 72.0456 16.4294 71.9886C16.3704 72.1206 16.3814 72.2386 16.2924 72.3576C16.2594 72.4006 16.2114 72.4646 16.1624 72.4916C16.1034 72.5216 16.0984 72.5776 16.0524 72.6206C15.7994 72.8736 15.9344 73.2616 15.9714 73.5516C15.9854 73.6216 16.0144 73.7136 15.9264 73.7296C15.8184 73.7516 15.9044 73.7026 15.7814 73.6216C15.7514 73.6056 15.7084 73.5576 15.6764 73.5416C15.6224 73.5196 15.4124 73.4866 15.3774 73.4386C15.3394 73.3846 15.3554 73.3636 15.3044 73.3206C15.1894 73.2126 15.1784 73.0056 15.0924 72.7906C15.0784 72.7496 15.0434 72.5616 15.0434 72.5216C15.0434 72.3056 14.4944 71.9586 14.7074 72.1366C14.7804 72.1986 14.6934 72.0496 14.4004 71.9776C14.2154 71.9296 13.9994 71.9406 13.7924 71.9666C13.7464 71.9746 13.7064 72.0096 13.6764 72.0316C13.4614 72.1986 13.2644 72.3946 12.9854 72.4076C13.0314 72.3786 13.0574 72.4356 13.0764 72.4596C13.2114 72.6316 13.1144 72.8416 13.1924 73.0296C13.2704 73.2156 13.4044 73.3586 13.5634 73.4866C13.7174 73.6056 13.9834 73.4436 14.1014 73.6536C14.1014 73.6486 14.3524 73.7136 14.1074 73.9606C13.6524 74.4186 13.1494 74.0476 12.7754 74.8976C13.3434 74.6546 13.4044 75.5216 13.6474 75.5506C14.7344 75.6996 15.5604 75.8936 16.1574 76.9936C16.5204 77.6666 15.5034 77.6956 16.4244 77.8546C16.8924 77.9356 17.2044 78.1696 17.4384 78.5036C17.6854 78.8476 17.7204 79.3156 17.9844 79.6386C18.1784 79.8696 18.2514 79.9186 18.4854 80.1116C18.5874 80.1986 18.9234 80.2866 19.0474 80.3166C19.1744 80.3516 19.2494 80.4136 19.3674 80.4566C19.4944 80.5056 19.6284 80.5476 19.7364 80.6366C19.8254 80.7126 20.0564 80.7906 20.1104 80.8986C20.2044 81.0806 20.1294 81.2696 20.2284 81.4546C20.2584 81.5066 20.4014 81.4636 20.4624 81.4826C20.5164 81.5006 20.6454 81.5086 20.6804 81.5006C20.9014 81.4526 20.9554 81.4366 21.1194 81.4176C21.3694 81.3876 21.3434 81.4686 21.6684 81.4526C21.7354 81.4526 21.7624 81.5006 21.8574 81.5006C21.9214 81.5006 22.0294 81.5706 22.0474 81.5116C22.1444 81.2046 22.3064 80.9036 22.4914 80.6016C22.6724 80.3036 22.6564 80.2736 22.8874 79.9566C22.8604 79.9666 23.1834 79.7406 23.1564 79.7356Z" fill="#231F20"/>
<path d="M14.7454 80.1288C15.7324 80.6618 15.6004 81.9748 16.4894 82.3998C18.0714 83.1538 19.9604 83.6698 21.6444 82.8438C21.2704 84.0148 21.6854 84.9938 21.5204 85.1258C20.9914 85.5478 19.3844 85.0458 18.3564 84.6388C17.6484 84.3538 17.0734 85.4098 16.2894 85.3168C16.3304 85.2258 16.4194 84.9568 16.3654 84.7898C16.2444 84.4078 16.1444 84.2948 15.5094 84.3698C15.1004 84.4128 15.2724 84.7518 14.6594 85.0528C14.4174 84.9078 13.9004 84.7468 13.8254 85.2068C13.7904 85.4218 13.3594 84.4618 13.4454 84.2998C13.8474 83.5838 13.9274 83.4148 13.9004 83.2578C13.8514 83.0218 12.9824 82.7018 12.8724 82.9008C12.6004 83.3738 11.8044 81.3748 14.1564 81.5018C13.5234 81.0978 13.5964 81.0278 13.7444 80.5438C13.7634 80.4768 13.5264 80.2258 13.3654 80.3978C13.3114 80.2118 13.4374 80.0108 13.5834 79.9888C13.9704 79.9358 14.3494 79.9138 14.7454 80.1288Z" fill="#231F20"/>
<path d="M19.4238 75.2859C20.8508 75.6139 22.9848 73.7729 24.2248 75.9419C23.3098 75.6079 20.6058 77.0569 19.4238 75.2859Z" fill="#231F20"/>
<path d="M31.3634 78.4389C31.3334 80.3009 29.4064 82.3079 30.9704 84.0789C30.3324 84.0709 29.5764 83.8479 29.1324 83.4869C28.8844 83.2879 28.9384 84.3749 28.9704 84.5979C29.0004 84.7889 27.7844 83.4549 27.3294 83.7769C26.0384 84.7059 25.4794 85.0879 23.5634 85.1609C23.0304 85.1769 22.7544 85.6069 22.6034 86.0699C22.1704 85.1849 22.4924 83.1639 22.7404 82.271C23.4184 79.811 25.8874 79.0789 27.8734 77.9059C29.2944 77.0609 29.9024 75.4059 29.8294 73.7939C30.8384 75.0549 31.3844 76.8589 31.3634 78.4389Z" fill="#231F20"/>
<path d="M22.2931 99.384C22.5351 99.438 22.3551 99.637 22.2611 99.696C22.0641 99.831 21.9271 99.992 21.8031 100.186C21.7071 100.332 21.6421 100.492 21.6771 100.673C21.7011 100.804 21.7471 100.923 21.7951 101.044C21.8271 101.117 21.8971 101.16 21.9541 101.224C21.9761 101.246 22.0641 101.356 22.0641 101.364C22.0111 101.176 22.2771 100.988 22.3391 101.023C23.5661 101.736 23.6361 100.293 24.3731 99.804C24.6861 99.593 25.3901 99.836 25.2071 100.477C25.9381 100.084 26.1561 99.099 26.7261 98.48C27.9911 97.108 29.7591 96.198 31.4381 95.458C30.8301 94.812 29.9371 94.271 29.4841 93.534C29.2581 93.168 28.9921 92.452 29.4871 92.581C31.5511 93.122 32.7081 91.862 32.9391 90.239C35.9941 90.634 36.7901 87.744 37.2021 85.56C37.4011 84.499 37.9801 84.408 37.3471 82.605C37.0841 81.849 38.7041 81.601 38.4261 80.296C38.3511 79.936 37.9041 79.575 37.6411 79.532C37.8941 80.235 36.7151 80.412 36.5881 80.7C36.3891 81.149 36.0991 81.51 36.0581 81.981C35.0631 80.603 35.8701 78.946 36.8041 77.654C38.1681 75.776 40.9961 76.763 42.1881 77.974C42.2101 77.365 41.7391 76.593 41.3511 76.219C42.4651 76.077 43.6741 76.755 45.1911 75.95C46.0681 75.485 46.9541 75.087 47.3651 74.048C45.5011 74.306 42.9741 72.869 41.2951 72.576C38.1601 72.032 36.0581 74.172 34.9391 76.717C33.8221 79.263 34.5381 81.163 35.7491 83.065C36.0531 83.547 34.6721 83.229 34.1291 83.514C33.5991 83.786 33.3811 84.44 33.5021 85.019C34.1691 84.3 35.9421 84.741 36.1011 85.971C36.3191 87.629 34.6481 90.04 33.0371 89.316C31.3091 88.541 30.3301 86.722 29.7561 84.669C28.2821 85.942 25.5491 84.892 24.2821 86.133C23.0761 87.314 26.1611 88.116 27.3641 88.67C27.8051 88.878 28.2501 89.332 28.1761 89.889C26.2951 88.783 24.0291 90.037 24.1391 92.047C24.2221 93.547 26.0591 94.481 27.5931 94.61C28.2301 94.659 28.6151 95.369 27.8401 95.856C26.4791 96.707 24.9621 97.654 23.4961 96.117C23.2511 95.862 22.3741 96.02 22.2021 96.488C22.1151 96.715 22.0891 97.065 22.1241 97.293C22.2021 97.156 22.2961 96.957 22.4191 96.973C22.5651 96.989 22.7401 97.142 22.7211 97.25C22.5951 98.006 21.6041 97.516 21.2971 98.103C21.2921 98.113 21.2761 98.125 21.2681 98.141C21.2491 98.189 21.2221 98.232 21.2011 98.273C21.0011 98.674 20.7251 98.921 21.2191 99.233C21.2061 99.158 21.4611 99.551 21.4561 99.618C21.4831 99.258 21.8571 99.263 21.8571 99.263L22.0751 99.287L22.2931 99.384Z" fill="#231F20"/>
<path d="M15.9258 92.3069C15.7318 92.2449 15.5298 92.3209 15.3368 92.4069C15.2158 92.4599 15.0678 92.4039 14.9918 92.5279C14.9468 92.6029 14.9198 92.6859 14.9438 92.7729C14.9568 92.8179 14.9758 92.9039 15.0138 92.9319C14.7578 92.9099 14.5158 92.7379 14.3168 92.5599C14.2548 92.5009 14.2148 92.4359 14.1528 92.3739C14.1148 92.3309 14.1178 92.2559 14.0908 92.1989C14.0638 92.1399 14.0768 92.0719 14.0748 92.0099C14.0698 91.8349 14.0638 91.6489 14.1448 91.4849C14.1798 91.4099 14.2178 91.3339 14.2718 91.2689C14.3138 91.2129 14.3568 91.1729 14.4058 91.1239C14.5378 90.9999 14.6828 90.8999 14.8578 90.8499C15.1108 90.7749 15.3908 90.7959 15.6328 90.9039C15.8258 90.9839 16.0578 90.9759 16.2588 91.0329C16.3698 91.0629 16.5718 90.7479 16.4238 90.7149C15.7828 90.5589 15.7858 90.3819 15.5468 89.7359C15.4338 89.6069 15.2878 89.7519 15.2238 89.8189C15.2208 88.5759 16.6978 88.4929 17.3148 88.9879C18.2298 89.7199 17.5438 91.1599 18.6648 91.5549C19.2488 91.7649 19.8678 91.9239 20.4708 91.6679C21.5548 91.2079 20.4758 90.1179 20.8228 89.1949C21.5308 87.3349 23.0998 87.2389 24.9678 89.0309C23.2968 89.5849 22.5158 91.7939 23.4308 93.2489C21.9558 92.6729 20.0998 93.6469 19.0638 94.3069C20.0268 93.3429 18.6738 92.5649 18.3348 92.7379L17.9228 93.0229C17.7258 93.2699 17.7098 93.5289 17.4678 93.7649C17.3338 93.8999 17.2558 93.9239 17.0778 93.9699C16.8328 94.0349 16.6818 94.0129 16.4648 93.8699C16.4238 93.8459 16.2918 93.8999 16.2678 93.9349C16.1498 94.0779 16.2618 94.1529 16.2588 94.2069C16.2358 94.1849 16.0848 94.0609 16.0608 94.0449C15.9238 93.9429 15.7618 93.8519 15.6758 93.7059C15.5898 93.5639 15.5298 93.2029 15.6268 93.0069C15.7238 92.8129 15.9208 92.7509 16.0518 92.6169C16.1758 92.4929 16.0288 92.3019 15.8778 92.2799" fill="#231F20"/>
<path d="M51.7895 75.8829C51.9235 75.9679 51.7785 76.2079 51.6275 76.2509C51.4475 76.3019 51.1975 76.2269 51.0385 76.2859C50.3365 76.5449 50.3365 78.2719 50.4335 78.0729C50.5385 77.8519 51.0555 77.9969 51.3915 78.0619C51.9325 78.1729 52.3445 77.0719 52.7045 77.1009C53.5465 77.1799 54.3345 78.2259 54.6585 78.9179C54.7145 79.0419 54.3025 79.0469 54.2755 79.4719C55.4275 79.3639 56.3965 80.1119 57.2275 80.7939C57.6345 80.0909 58.0425 79.6549 58.5005 79.1949C56.7705 77.5129 53.3335 76.9909 53.8645 73.9239C53.9365 73.5299 53.4905 73.1859 53.2905 72.9919C53.0705 72.7779 52.5595 72.7669 52.2445 72.6909C52.5755 73.3689 51.9805 73.4389 52.0665 74.5159C52.0665 74.5529 51.9695 74.5289 51.9325 74.5159C51.7245 74.4249 51.5505 74.2979 51.3535 74.1739C51.1735 74.0639 51.0095 74.0929 50.8105 74.1229C50.6915 74.1389 50.5815 74.1929 50.4815 74.2649C50.3175 74.3809 50.2345 74.5309 50.1215 74.6979C50.0995 74.7279 50.0785 74.7629 50.0515 74.7899C50.0135 74.8279 49.9405 74.9459 49.9355 75.0029C50.0245 74.9949 50.3045 75.0159 50.3525 75.0909C50.4335 75.2159 50.4335 75.3609 50.5305 75.4789C50.6485 75.6299 50.7485 75.6349 50.9205 75.7079C51.1895 75.8209 51.4285 75.8719 51.7225 75.8449" fill="#231F20"/>
<path d="M56.2617 74.647C57.3407 74.569 58.4117 73.74 59.6047 75.14C59.3847 75.035 59.1287 75 58.9917 75.107C57.6747 76.173 56.0687 75.813 55.2227 74.494C55.5677 74.438 55.9847 74.669 56.2617 74.647Z" fill="#231F20"/>
<path d="M60.9321 78.563C62.7051 77.669 64.4971 76.949 65.2261 74.748C65.3721 74.317 65.6971 75.388 65.7191 75.447C66.6581 78.132 64.7881 80.802 65.1731 83.541C64.5491 83.159 63.8461 82.896 63.1601 82.874C60.7241 82.804 60.1461 84.284 60.0091 84.149C59.3411 83.471 57.4241 82.893 57.5641 83.019C56.4261 81.97 59.7091 79.188 60.9321 78.563Z" fill="#231F20"/>
<path d="M56.0832 96.4349C56.3252 96.8109 56.0022 96.2219 56.2792 96.8599C57.5632 96.3219 58.8912 95.7079 60.3122 96.2839C59.6822 93.3969 61.7892 92.6939 61.9562 92.2639C62.2222 91.5709 60.8152 90.1929 59.7542 90.5779C58.3992 91.0629 58.9632 92.7699 58.7082 93.9679C58.5682 94.6269 57.7492 95.1139 57.0672 94.8789C55.9482 94.4919 55.4992 93.4479 55.2222 92.2769C55.0362 91.4979 53.5192 91.4039 53.1872 92.0449C52.2562 93.8519 53.7442 91.8349 53.6472 93.2059C53.6312 93.4399 52.5582 93.2649 52.3152 94.0809C52.1512 94.6369 52.6822 95.0089 53.3432 95.2029C53.4672 95.2399 53.2142 94.9279 53.3842 94.8579C53.5052 94.8119 53.9922 95.0729 53.9332 95.1049C53.2952 95.4959 53.1282 96.3999 54.2722 96.7949C54.2802 96.7979 54.1882 96.4669 54.2742 96.4049C55.1672 95.7409 56.0962 96.4559 56.0992 96.4349" fill="#231F20"/>
<path d="M36.7715 114.696C37.8405 115.191 38.1845 114.658 39.5865 114.432C39.7835 114.4 40.5745 114.917 40.8025 115.18C39.3975 115.401 37.6865 116.623 36.7715 114.696Z" fill="#231F20"/>
<path d="M36.2015 115.821C36.1345 115.746 36.0425 115.719 35.9565 115.687C35.8695 115.643 35.7765 115.611 35.6745 115.6C35.6495 115.595 35.4725 115.557 35.4455 115.547C35.4395 115.606 35.5205 115.773 35.4745 115.81C35.3615 115.918 35.3215 115.891 35.2325 116.026C35.2005 116.08 35.1625 116.133 35.1495 116.193C35.1245 116.316 35.0715 116.456 35.0545 116.596C35.0525 116.666 35.0785 116.833 35.0955 116.897C35.1055 116.935 35.1815 117.086 35.2025 117.129C35.2025 117.129 35.3725 117.312 35.3645 117.301C35.5605 117.5 35.3995 117.382 35.6415 117.63C35.7675 117.742 35.5845 117.947 35.4665 117.915C34.6405 117.678 34.5245 116.715 33.7745 116.424C33.2245 116.214 32.4395 116.639 32.3555 117.473C32.5385 117.42 32.7325 117.489 32.7675 117.64C32.9695 118.48 34.2015 117.979 34.2285 118.571C34.2525 118.959 33.3085 118.507 32.9375 118.754C32.4445 119.083 32.3775 120.029 32.8105 120.579C33.2605 120.154 33.8175 120.778 34.2525 120.466C34.5565 120.25 34.6645 119.944 34.9765 119.804C35.9215 119.384 36.2015 120.256 35.9915 121.133C36.5025 120.896 37.7055 120.649 37.9795 120.573C38.4775 120.439 38.4985 119.287 39.1105 118.862C38.2435 118.857 37.1755 118.48 36.9325 117.64C36.9115 117.549 36.9735 117.446 36.9815 117.344C37.0035 117.021 36.9735 116.709 36.8495 116.413C36.8385 116.381 36.8065 116.343 36.7825 116.305C36.7505 116.257 36.7205 116.209 36.6885 116.16C36.6025 116.042 36.4725 115.983 36.3515 115.907C36.2955 115.875 36.2275 115.864 36.1875 115.81" fill="#231F20"/>
<path d="M29.8443 121.784C30.2213 122.515 28.3563 121.337 27.6563 122.43C27.4333 122.78 27.5543 123.565 27.5543 124.012C27.9823 123.619 28.4073 124.362 29.2093 123.651C29.2983 123.732 29.3923 123.781 29.2713 123.904C28.9753 124.206 28.8113 124.576 28.9673 124.932C29.0643 125.169 29.7283 125.637 29.7343 125.599C29.8023 125.115 30.6223 125.599 30.7483 124.652C30.8053 124.265 30.9183 123.619 31.4833 123.85C31.9943 124.066 32.1023 124.647 31.9813 125.222C32.8023 124.959 34.2413 124.114 35.0993 124.738C36.2573 125.573 38.1543 125.917 39.5073 126.337C38.6093 125.712 38.3233 124.087 38.4743 123.027C36.3453 123.447 34.1103 123.377 32.1363 122.462C31.5963 122.214 31.6693 121.59 31.5053 121.074C31.3223 120.497 30.5933 119.965 29.9333 120.013C29.5783 120.04 28.7273 120.783 28.8893 120.821C28.8323 120.809 28.8353 120.928 28.8083 120.982C28.9673 120.88 29.1723 120.982 29.2413 121.154C29.2953 121.278 29.3463 121.407 29.4463 121.51C29.5673 121.628 29.7773 121.655 29.8443 121.784Z" fill="#231F20"/>
<path d="M34.9474 133.414C35.3584 132.908 35.7034 133.177 35.8834 133.183C36.3164 133.198 36.2874 133.807 36.2414 134.194C37.9344 133.376 39.5454 132.208 41.5344 132.639C40.3774 131.428 40.7864 128.829 42.4224 128.506C42.4224 128.506 41.3674 128.333 41.2544 128.264C39.8334 127.365 38.0954 126.504 37.1404 128.393C36.6634 129.329 37.5384 130.088 38.1894 130.863C38.3074 131.003 38.1164 131.089 37.9634 131.132C36.4104 131.53 33.5454 131.762 33.4164 129.437C33.4024 129.2 32.8024 129.006 32.4144 129.017C31.2634 129.055 31.2814 130.518 31.4114 130.416C31.6644 130.228 32.4334 130.298 32.3424 130.885C32.2564 131.433 31.1824 130.594 30.7544 131.148C30.3944 131.605 30.4074 132.364 30.6604 132.876C30.6094 132.687 30.8274 132.547 30.9434 132.531C32.1374 132.332 32.2054 132.747 31.8504 133.904C31.8224 133.99 32.2024 134.722 32.4554 134.786C32.4334 134.781 32.4394 134.62 32.4744 134.565C32.5064 134.512 32.5654 134.469 32.6244 134.447C32.7574 134.404 32.8884 134.41 33.0174 134.377C33.0824 134.356 33.1284 134.318 33.1874 134.286C33.2814 134.226 33.3454 134.14 33.4104 134.054C33.6904 133.71 33.9354 133.258 34.4034 133.215C34.6184 133.193 34.7564 133.29 34.9414 133.409" fill="#231F20"/>
<path d="M47.3 138.812C48.39 137.73 49.181 136.282 50.346 135.228C49.068 134.474 47.48 133.688 47.314 131.993C47.3 131.88 47.488 131.751 47.534 131.772C49.313 132.773 51.713 132.854 52.999 131.035C54.032 129.566 54.485 127.182 56.503 127.042C55.83 125.756 56.586 124.265 57.692 123.582C57.318 123.441 56.839 123.135 56.419 123.21C55.911 123.301 55.693 123.99 55.112 124.098C56.027 121.014 54.256 116.709 50.863 116.784C50.225 116.8 49.402 117.312 49.195 118.006C48.998 118.663 48.899 119.486 49.369 120.051C50.481 121.38 51.282 122.833 50.932 124.588C51.723 123.904 52.453 122.898 52.426 121.827C52.424 121.558 52.913 121.751 52.983 121.639C53.914 120.282 52.394 119.437 51.589 118.582C51.366 118.351 51.934 117.99 52.006 118.017C54.918 118.889 55.195 122.473 53.946 124.803C53.615 124.389 52.38 124.529 51.963 124.383C53.327 125.072 52.972 125.169 52.918 125.395C52.816 125.804 51.592 125.626 51.355 125.928C50.946 126.45 50.639 126.681 50.607 128.414C51.172 127.801 51.912 126.88 52.714 127.29C54.431 128.172 52.628 131.132 51.013 131.622C49.633 132.041 48.358 131.6 47.502 130.4C46.264 128.662 47.163 126.558 46.285 124.792C45.553 124.976 45.72 125.928 45.339 125.756C43.993 125.131 43.229 123.694 42.255 122.489C41.851 122.634 41.671 123.005 41.283 122.99C40.707 122.962 39.62 122.791 39.386 123.076C39.12 123.415 38.921 125.858 41.299 126.746C42.914 127.349 44.195 127.887 45.212 129.146C44.529 129.2 44.292 128.872 43.735 128.85C43.186 128.829 42.841 129.044 42.424 129.254C42.029 129.458 41.566 130.233 41.644 130.857C42.015 133.817 45.491 133.855 47.09 135.728C47.367 136.045 46.673 137.332 46.016 137.854C45.459 138.295 44.122 137.181 44.34 136.234C44.515 135.48 42.691 134.975 42.053 135.841C42.306 135.809 42.37 135.981 42.346 136.094C42.233 136.793 43.097 136.82 43.07 137.176C43.029 137.666 42.607 136.971 42.274 136.907C41.536 136.761 40.804 137.02 40.374 137.606C40.244 137.784 39.954 138.069 40.083 138.371C40.645 138.096 40.939 138.973 41.464 138.699C41.783 138.537 42.045 138.258 42.429 138.354C42.583 138.397 42.741 138.602 42.602 138.688C41.576 139.35 40.756 140.268 41.498 141.322C41.517 141.075 41.711 140.902 41.867 140.859C42.166 140.773 42.561 140.978 42.855 140.881C43.331 140.72 43.083 140.251 43.266 139.913C43.551 139.377 44.52 138.494 45.067 139.14C45.166 139.253 45.088 139.686 44.795 139.686C45.093 139.686 45.365 139.977 45.621 139.923C45.694 139.913 45.769 139.913 45.834 139.874C45.893 139.848 45.957 139.832 46 139.789C46.121 139.665 46.261 139.538 46.28 139.35C46.501 139.366 46.778 139.393 46.924 139.199C47.06 139.017 47.235 138.871 47.389 138.726" fill="#231F20"/>
<path d="M42.34 117.403C44.245 116.871 46.363 115.881 46.82 113.765C47.399 114.11 47.579 114.901 47.588 115.385C47.628 118.038 46.468 120.337 47.03 123.113C47.095 123.425 47.668 124.416 47.407 124.303C47.09 124.157 46.42 123.528 46.051 123.818C45.588 124.179 45.62 124.755 45.397 124.62C44.56 124.109 43.674 123.356 43.266 122.387C43.11 122.015 43.174 121.23 43.072 121.343C42.437 122.037 41.132 122.182 40.166 122.333C40.387 122.134 40.583 121.343 40.548 121.181C39.789 120.799 38.699 122.102 38.715 121.935C38.756 121.515 38.801 121.386 38.842 121.273C39.407 119.604 40.475 117.92 42.34 117.403Z" fill="#231F20"/>
<path d="M28.1764 72.2018C28.6694 72.1908 29.0354 71.8838 29.3494 71.5498C29.3254 71.8308 29.7324 72.2228 29.5814 72.5198C29.3934 72.8908 28.9164 73.1138 28.8224 73.4618C28.6264 74.1718 29.1974 74.8598 28.7824 75.5658C27.5554 77.6348 24.8844 76.9488 23.0604 77.4088C23.1834 77.1848 23.0284 76.8518 22.8904 76.7598C23.7004 76.8648 24.7774 76.6878 24.9944 76.0768C25.2614 75.3228 25.3954 74.7638 25.0404 74.1418C24.4564 73.1108 23.2404 73.5958 22.3284 73.9508C22.1854 73.3158 22.7824 72.9258 23.1274 72.8368C24.0934 72.5838 24.9704 72.1638 25.8714 71.8308C26.6564 71.5338 27.3724 72.2228 28.1764 72.2018ZM26.8234 73.2348C26.9044 73.1978 26.9444 73.1438 26.9364 73.1298C26.2424 72.1618 25.4094 72.2578 25.0594 73.1218C24.8204 73.7088 26.2094 73.5208 26.8234 73.2348Z" fill="#231F20"/>
<path d="M63.4372 76.107C63.1792 76.33 62.7402 76.324 62.4472 76.529C62.2642 76.653 62.1002 76.787 61.9142 76.9C61.8252 76.954 61.5642 77.072 61.4672 77.094C61.2012 77.164 61.2572 77.132 61.0152 77.164C60.8672 77.185 60.7972 77.191 60.6522 77.191C60.5042 77.191 60.0552 77.204 59.9092 77.202C59.5622 77.196 59.5032 77.218 59.1562 77.164C58.9542 77.132 58.7662 77.078 58.5782 77.013C58.4522 76.97 58.3172 76.949 58.1832 76.943C58.1992 76.806 58.2152 76.656 58.3262 76.564C58.4712 76.437 58.5002 76.551 58.7092 76.531C58.7172 76.529 59.0112 76.556 59.0192 76.556C59.0672 76.556 59.1292 76.553 59.1772 76.545C59.2692 76.531 59.3472 76.513 59.4282 76.475C59.5332 76.427 59.6462 76.394 59.7402 76.319C59.7722 76.292 59.8102 76.265 59.8452 76.233C59.9152 76.166 60.0062 76.131 60.0712 76.052C60.2702 75.813 60.4182 75.576 60.4372 75.264C60.4582 75.033 60.4772 74.796 60.4342 74.559C60.4292 74.522 60.4202 74.484 60.4182 74.451C60.4022 74.268 60.3132 74.096 60.2242 73.924C59.6942 72.912 58.4252 73.903 57.5542 73.86C57.5542 73.666 57.5352 73.311 57.6342 73.184C58.2532 72.385 59.2122 72.778 59.7132 72.409C61.3872 71.169 61.8332 72.062 63.5832 72.546C64.1102 72.694 64.8602 72.364 65.3582 72.148C65.4822 72.1 65.4792 72.891 65.4172 73.052C65.2082 73.607 64.6342 73.58 64.4332 74.075C64.1392 74.807 64.0912 75.835 63.3192 76.2L63.4372 76.107ZM62.2292 72.864C62.3042 72.821 62.1672 72.923 62.2312 72.859C61.4762 72.482 60.4932 71.987 60.1462 72.993C59.8932 73.736 61.5712 73.217 62.2292 72.864Z" fill="#231F20"/>
<path d="M44.7476 112C45.5246 112.184 46.3696 112.205 46.8706 111.527C47.1176 112.576 46.1546 112.711 45.9776 113.222C45.7086 114.008 45.7236 114.788 44.9676 115.192C43.4586 115.994 41.5716 116.957 39.8416 117.102C39.8556 116.887 39.7106 116.499 39.9876 116.489C40.5926 116.462 41.0636 116.01 41.2036 115.649C41.3916 115.154 41.1766 113.943 40.7246 113.706C40.2026 113.432 39.7476 113.852 39.2656 114.061C39.0676 113.534 39.8926 112.651 41.1896 112.732C41.1546 112.727 41.8306 111.99 41.8006 112.017C42.6486 111.43 43.5766 111.726 44.7476 112ZM42.4466 113.351C42.7456 113.464 43.6336 112.975 43.9536 112.797C44.0346 112.748 44.0886 112.673 44.1506 112.614C44.1556 112.603 44.1446 112.581 44.1316 112.581C43.8756 112.528 43.6466 112.512 43.3966 112.485C43.2106 112.457 43.0716 112.334 42.8826 112.296C42.8346 112.286 42.7886 112.291 42.7376 112.312C42.6676 112.339 42.6426 112.393 42.5846 112.42C42.4946 112.457 42.3656 112.457 42.2856 112.533C42.2016 112.608 42.1296 112.679 42.1046 112.786C42.0706 112.91 42.0996 113.093 42.1856 113.195C42.2526 113.281 42.3536 113.318 42.4466 113.351Z" fill="#231F20"/>
<path d="M68.2661 104.654C68.2421 104.396 68.8771 103.637 68.8931 103.077C68.9551 101.178 70.0991 100.282 70.1341 98.2539C70.1391 97.7229 67.9491 97.2259 67.8521 96.0849C67.8061 95.5199 67.6201 94.7019 68.1881 94.7179C68.9141 94.7289 69.6281 94.5989 70.1411 94.1479C72.4341 92.1309 70.4991 89.3729 70.2221 86.9369C70.1611 86.4019 71.1481 85.2529 71.1211 84.8759C70.9601 82.8089 70.5781 80.9259 71.3151 78.8969C70.7391 79.4129 70.5641 80.2639 70.0801 80.6999C69.8461 80.9149 69.7301 80.4359 69.7461 80.3609C70.0341 78.5739 70.7471 77.0129 71.5731 75.3179C72.5531 73.3049 72.0601 71.6719 70.2521 71.0719C68.5941 70.5199 66.9931 72.0619 66.8131 73.6499C66.6461 75.1049 67.1011 76.8489 67.4431 78.0409C67.5421 78.3909 67.4831 78.7869 67.5561 79.0879C67.8541 77.8849 67.8871 76.6309 67.8681 75.3559C67.8631 75.0489 68.1101 74.6319 68.4281 74.5379C69.5041 74.2259 70.0611 75.0059 69.9911 75.6119C69.7541 77.5159 69.3701 78.9779 68.9141 80.8689C68.3921 83.0299 69.1671 85.1719 69.3931 87.2759C68.5651 86.7859 67.6661 86.7649 67.3461 88.0559C67.1711 88.7429 67.7901 89.4639 67.9811 90.0719C68.0001 89.2459 68.7801 88.1179 69.5361 88.6219C70.4651 89.2399 70.4991 92.2049 70.2921 92.5949C69.8431 93.4529 69.1001 94.0669 68.0731 93.7649C67.4941 93.5929 67.7281 92.7369 67.3811 92.3709C65.5321 90.4619 64.6901 88.1749 64.5311 85.5349C64.5071 85.1499 64.7091 84.1329 64.6521 84.1119C62.2361 83.1159 61.1221 84.1089 60.1181 85.5349C59.9461 85.1019 59.0231 84.4989 58.9501 84.6339C58.4921 85.4839 58.6251 87.0289 59.3111 87.6289C61.1731 89.2399 63.0211 90.3219 64.0681 92.6239C62.9491 92.7699 61.8591 93.0929 61.4321 94.2629C60.9821 95.4819 61.1361 97.1799 62.4241 97.6749C63.4741 98.0809 65.2791 97.6299 65.6751 97.6779C66.7891 97.8229 68.0371 98.7869 67.8631 99.8419C67.8541 99.8949 67.3841 102.362 66.3181 101.752C65.7391 101.418 66.0651 100.068 65.1831 99.8569C63.9981 99.5669 63.7051 101.227 63.8561 101.085C64.2351 100.724 64.4961 101.321 65.2311 101.725C62.7471 101.187 63.5191 103.465 63.6081 103.212C63.7351 102.857 64.1871 103.228 65.0781 103.163C65.1071 103.163 64.8841 103.352 64.8701 103.373C64.7301 103.599 64.6611 103.712 64.5611 103.954C64.5131 104.068 64.5171 104.191 64.5341 104.31C64.5451 104.433 64.5881 104.535 64.6551 104.643C64.6651 104.665 64.6901 104.686 64.7171 104.702C64.7281 104.702 64.7631 104.761 64.7681 104.761C64.8251 104.767 64.7221 104.584 64.8651 104.573C64.8971 104.573 65.0051 104.557 65.0321 104.568C65.0991 104.589 65.1831 104.633 65.2521 104.654C65.3141 104.67 65.3821 104.681 65.4541 104.692C65.6211 104.713 65.6831 104.718 65.8311 104.67C65.9541 104.627 66.0811 104.6 66.2001 104.514C66.0381 104.627 66.3741 104.353 66.3581 104.385C66.5141 104.051 66.6111 104.148 66.6431 104.089C66.9071 103.588 67.1361 103.54 67.7201 103.61C67.7761 103.615 67.8841 103.734 67.9191 103.787C67.9591 103.852 68.0801 104.164 68.0591 104.051C68.1021 104.282 68.2451 104.428 68.2661 104.654Z" fill="#231F20"/>
<path d="M50.3574 81.7886C50.2074 81.6946 50.1584 81.4636 50.0534 81.3666C50.0214 81.3346 49.9944 81.2966 49.9614 81.2586C49.9104 81.2056 49.8844 81.1296 49.8654 81.0596C49.7624 80.7046 49.8144 80.2846 50.1344 80.0476C50.1474 80.0376 50.1454 80.0156 50.1504 80.0046C50.1694 79.9726 50.2174 79.9566 50.2254 79.9296C50.2334 79.8966 50.2874 79.8966 50.2684 79.8596C50.2934 79.8676 50.2934 79.8376 50.3004 79.8276C50.3654 79.7466 50.3684 79.5986 50.2444 79.5586C50.3494 79.5666 50.4514 79.5636 50.5564 79.5876C50.5974 79.5956 50.6374 79.6066 50.6754 79.6116C51.0674 79.6636 51.5634 79.8376 51.6684 80.2336L51.8054 80.3926C52.2144 81.3396 52.0744 83.6756 54.3484 84.2346C55.5324 84.5286 56.7214 84.8966 57.9354 84.8756C57.6414 86.0566 57.6444 87.5586 58.5824 88.4166C57.2194 87.6716 56.3094 87.8306 55.1264 86.7056C54.5954 86.2046 53.3634 85.5206 52.7684 85.6236C52.5214 85.6616 53.1074 84.8326 52.5584 84.6676C52.2004 84.5636 51.2424 84.5846 51.0784 84.8326C50.2934 86.0136 49.4664 86.0056 49.1894 86.2456C49.5074 85.9736 47.9004 84.6656 49.8974 83.9556C50.0864 83.8856 50.1584 83.4496 49.9214 83.3416C49.5314 83.1616 49.2084 83.4306 48.8204 83.6536C48.3794 83.9176 48.2774 82.9596 47.5864 83.3116C47.4404 81.2586 49.2704 81.0866 50.3574 82.3616C50.4334 82.4586 50.7394 82.3466 50.6134 82.2356L50.3574 81.7886Z" fill="#231F20"/>
<path d="M8.66797 67.6919L8.68397 68.3529C8.72197 69.8629 8.75097 71.3669 8.78397 72.8689C9.19297 92.4489 9.57697 110.944 21.154 128.71C25.926 136.04 33.262 142.134 42.354 146.349L42.625 146.478L42.897 146.349C51.976 142.124 59.297 136.029 64.062 128.71C75.636 110.95 76.023 92.4629 76.43 72.8869C76.465 71.3779 76.494 69.8679 76.532 68.3529L76.548 67.6919H8.66797ZM15.973 115.74L42.674 94.5749L69.261 115.686C68.594 117.43 67.846 119.157 67.006 120.885L42.677 101.566L18.237 120.944C17.397 119.216 16.646 117.484 15.973 115.74ZM62.978 128.005C58.394 135.045 51.357 140.935 42.625 145.046C33.878 140.945 26.833 135.055 22.236 128.005C21.466 126.826 20.75 125.637 20.077 124.447L42.674 106.537L65.166 124.394C64.485 125.605 63.761 126.805 62.978 128.005ZM75.138 72.8609C74.858 86.3339 74.581 99.2859 70.625 111.795L42.677 89.6059L14.612 111.86C10.632 99.3269 10.358 86.3449 10.075 72.8419C10.051 71.5609 10.022 70.2749 9.99197 68.9839H75.224C75.195 70.2799 75.167 71.5719 75.138 72.8609Z" fill="#231F20"/>
<path d="M97.9004 82.8778H106.098L113.292 106.407L121.089 82.7788H127.636L135.433 106.407L142.631 82.8778H150.627L138.756 117.877H132.11L124.274 95.1458L116.421 117.877H109.77L97.9004 82.8778Z" fill="#231F20"/>
<path d="M162.734 82.874H169.786L184.669 117.877H176.682L173.506 110.076H158.812L155.635 117.877H147.834L162.734 82.874ZM170.777 103.326L166.165 92.059L161.549 103.326H170.777Z" fill="#231F20"/>
<path d="M193.006 90.172H182.434V83.125H211.234V90.172H200.666V117.878H193.006V90.172Z" fill="#231F20"/>
<path d="M217.045 83.125H243.259V89.917H224.641V96.969H241.027V103.778H224.641V111.071H243.505V117.877H217.045V83.125Z" fill="#231F20"/>
<path d="M251.729 83.126H267.621C272.039 83.126 275.461 84.363 277.75 86.652C279.681 88.583 280.724 91.312 280.724 94.583V94.691C280.724 100.302 277.703 103.828 273.28 105.466L281.763 117.875H272.828L265.38 106.755H259.38V117.875H251.729V83.126ZM267.121 100.005C270.849 100.005 272.983 98.018 272.983 95.091V94.992C272.983 91.712 270.69 90.027 266.97 90.027H259.38V100.005H267.121Z" fill="#231F20"/>
<path d="M289.16 83.125H296.802V110.926H313.073V117.877H289.16V83.125Z" fill="#231F20"/>
<path d="M314.248 100.599V100.495C314.248 90.625 322.045 82.522 332.778 82.522C343.492 82.522 351.195 90.522 351.195 100.401V100.495C351.195 110.383 343.398 118.474 332.678 118.474C321.954 118.474 314.248 110.478 314.248 100.599ZM343.195 100.599V100.495C343.195 94.547 338.829 89.578 332.678 89.578C326.519 89.578 322.248 94.444 322.248 100.401V100.495C322.248 106.452 326.618 111.426 332.778 111.426C338.928 111.426 343.195 106.56 343.195 100.599Z" fill="#231F20"/>
<path d="M353.338 100.599V100.495C353.338 90.625 361.13 82.522 371.85 82.522C382.578 82.522 390.272 90.522 390.272 100.401V100.495C390.272 110.383 382.479 118.474 371.755 118.474C361.031 118.474 353.338 110.478 353.338 100.599ZM382.285 100.599V100.495C382.285 94.547 377.914 89.578 371.755 89.578C365.604 89.578 361.333 94.444 361.333 100.401V100.495C361.333 106.452 365.703 111.426 371.85 111.426C378.009 111.426 382.285 106.56 382.285 100.599Z" fill="#231F20"/>
<path d="M417.968 69.0127H414.717V132.924H417.968V69.0127Z" fill="#231F20"/>
<path d="M466.592 84.2397L458.045 97.9907L449.488 84.2397H441.781V116.762H448.798V95.6677L457.855 109.42H458.045L467.192 95.5267V116.762H474.304V84.2397H466.592Z" fill="#231F20"/>
<path d="M496.215 92.5999L500.535 103.154H491.893L496.215 92.5999ZM493.004 84.0049L479.068 116.763H486.36L489.33 109.467H503.086L506.061 116.763H513.545L499.602 84.0049H493.004Z" fill="#231F20"/>
<path d="M511.809 84.2397V90.8327H521.702V116.762H528.856V90.8327H538.754V84.2397H511.809Z" fill="#231F20"/>
<path d="M564.337 84.2397V97.1087H551.143V84.2397H543.988V116.762H551.143V103.705H564.337V116.762H571.491V84.2397H564.337Z" fill="#231F20"/>
<path d="M579.047 84.2397V116.762H603.811V110.397H586.158V103.568H601.486V97.2028H586.158V90.6058H603.575V84.2397H579.047Z" fill="#231F20"/>
<path d="M634.736 84.2397L626.188 97.9907L617.637 84.2397H609.926V116.762H616.942V95.6677L626 109.42H626.188L635.34 95.5267V116.762H642.447V84.2397H634.736Z" fill="#231F20"/>
<path d="M664.357 92.5999L668.678 103.154H660.035L664.357 92.5999ZM661.151 84.0049L647.211 116.763H654.507L657.478 109.467H671.234L674.209 116.763H681.689L667.749 84.0049H661.151Z" fill="#231F20"/>
<path d="M679.951 84.2397V90.8327H689.844V116.762H696.998V90.8327H706.896V84.2397H679.951Z" fill="#231F20"/>
<path d="M719.611 84.2388H712.457V116.761H719.611V84.2388Z" fill="#231F20"/>
<path d="M726.062 100.595V100.5C726.062 91.2537 733.034 83.6797 743.021 83.6797C749.151 83.6797 752.824 85.7287 755.845 88.6987L751.289 93.9467C748.781 91.6747 746.227 90.2767 742.974 90.2767C737.492 90.2767 733.542 94.8337 733.542 100.406V100.5C733.542 106.077 737.4 110.724 742.974 110.724C746.69 110.724 748.966 109.237 751.521 106.913L756.078 111.509C752.73 115.088 749.017 117.317 742.742 117.317C733.169 117.317 726.062 109.931 726.062 100.595Z" fill="#231F20"/>
<path d="M759.309 112.022L763.536 106.96C766.464 109.377 769.533 110.908 773.249 110.908C776.173 110.908 777.943 109.746 777.943 107.843V107.749C777.943 105.935 776.828 105.005 771.388 103.612C764.838 101.94 760.612 100.127 760.612 93.6709V93.577C760.612 87.679 765.349 83.7729 771.993 83.7729C776.734 83.7729 780.772 85.261 784.073 87.91L780.356 93.2979C777.475 91.3009 774.642 90.0919 771.899 90.0919C769.16 90.0919 767.719 91.3479 767.719 92.9299V93.0199C767.719 95.1539 769.112 95.8569 774.732 97.2929C781.334 99.0119 785.045 101.383 785.045 107.05V107.144C785.045 113.604 780.123 117.226 773.107 117.226C768.186 117.226 763.214 115.507 759.309 112.022Z" fill="#231F20"/>
<path d="M22.5925 424.582L34.3195 396.749L45.3715 424.582L56.3695 398.521H60.9135L45.2605 435.06L34.2065 407.278L22.4245 435.06L8.06055 398.521H12.6055L22.5925 424.582Z" fill="#231F20"/>
<path d="M100.973 415.931C100.973 425.886 92.1652 433.913 81.3362 433.913C76.0062 433.913 70.5642 431.619 66.8602 427.814C63.7192 424.53 62.0352 420.413 62.0352 415.721C62.0352 406.13 71.0122 397.948 81.5602 397.948C92.2212 397.948 100.973 406.079 100.973 415.931ZM66.2432 415.722C66.2432 419.996 67.8702 423.54 71.0122 426.303C73.8742 428.805 77.6892 430.264 81.3922 430.264C89.9212 430.264 96.7662 423.906 96.7662 415.931C96.7662 408.008 89.9772 401.597 81.5042 401.597C73.1452 401.597 66.2432 408.008 66.2432 415.722Z" fill="#231F20"/>
<path d="M112.702 396.593L127.066 425.938L141.766 396.541L147.545 433.287H143.281L139.802 409.103L127.066 434.747L114.497 409.103L110.793 433.287H106.531L112.702 396.593Z" fill="#231F20"/>
<path d="M159.663 402.118V412.49H174.419V416.087H159.663V429.69H174.812V433.287H155.455V398.521H174.812V402.118H159.663Z" fill="#231F20"/>
<path d="M181.77 397.062L210.89 425.469V398.521H215.098V434.851L185.978 406.496V433.287H181.77V397.062Z" fill="#231F20"/>
<path d="M242.31 398.521H238.102V433.287H242.31V398.521Z" fill="#231F20"/>
<path d="M251.287 397.062L280.407 425.469V398.521H284.615V434.851L255.495 406.496V433.287H251.287V397.062Z" fill="#231F20"/>
<path d="M336.121 406.184C332.474 403.004 329.051 401.597 324.787 401.597C316.54 401.597 309.695 408.112 309.695 416.087C309.695 423.853 316.54 430.264 324.843 430.264C328.996 430.264 332.53 428.857 336.121 425.73V430.525C332.474 432.871 328.939 433.914 324.843 433.914C314.239 433.914 305.486 425.834 305.486 416.036C305.486 406.081 314.295 397.949 325.068 397.949C329.22 397.949 332.306 398.939 336.121 401.389V406.184Z" fill="#231F20"/>
<path d="M379.323 415.931C379.323 425.886 370.515 433.913 359.686 433.913C354.356 433.913 348.914 431.619 345.21 427.814C342.069 424.53 340.385 420.413 340.385 415.721C340.385 406.13 349.362 397.948 359.91 397.948C370.571 397.948 379.323 406.079 379.323 415.931ZM344.593 415.722C344.593 419.996 346.22 423.54 349.362 426.303C352.224 428.805 356.039 430.264 359.742 430.264C368.271 430.264 375.115 423.906 375.115 415.931C375.115 408.008 368.327 401.597 359.854 401.597C351.494 401.597 344.593 408.008 344.593 415.722Z" fill="#231F20"/>
<path d="M391.051 396.593L405.414 425.938L420.115 396.541L425.894 433.287H421.63L418.151 409.103L405.414 434.747L392.846 409.103L389.144 433.287H384.879L391.051 396.593Z" fill="#231F20"/>
<path d="M438.014 433.287H433.805V398.521H440.595C445.195 398.521 447.833 399.199 450.022 400.971C452.21 402.691 453.5 405.401 453.5 408.268C453.5 414.366 449.012 418.067 441.661 418.067H438.015V433.287H438.014ZM441.38 414.522C446.485 414.522 449.403 412.229 449.403 408.268C449.403 406.391 448.674 404.723 447.328 403.681C445.926 402.586 444.129 402.118 441.099 402.118H438.014V414.522H441.38Z" fill="#231F20"/>
<path d="M462.699 419.84C462.699 423.436 462.98 424.999 463.933 426.512C465.392 428.7 468.589 430.264 471.844 430.264C475.041 430.264 478.24 428.701 479.698 426.512C480.652 424.999 480.933 423.436 480.933 419.84V398.522H485.141V420.882C485.141 424.635 484.467 426.98 482.672 429.117C480.202 432.088 476.108 433.913 471.843 433.913C467.522 433.913 463.371 432.088 460.957 429.117C459.162 426.979 458.488 424.687 458.488 420.882V398.522H462.697V419.84H462.699Z" fill="#231F20"/>
<path d="M503.153 433.287H498.945V402.118H489.912V398.521H512.243V402.118H503.153V433.287Z" fill="#231F20"/>
<path d="M521.22 402.118V412.49H535.977V416.087H521.22V429.69H536.367V433.287H517.012V398.521H536.367V402.118H521.22Z" fill="#231F20"/>
<path d="M564.986 433.287H559.879L548.602 418.067H547.536V433.287H543.328V398.522H549.388C553.652 398.522 556.177 399.043 558.367 400.398C560.947 402.013 562.518 404.984 562.518 408.268C562.518 413.532 558.814 417.286 553.092 417.753L564.986 433.287ZM550.173 414.627C555.447 414.627 558.42 412.334 558.42 408.269C558.42 406.131 557.41 404.255 555.672 403.265C554.324 402.483 552.642 402.119 550.004 402.119H547.535V414.628H550.173V414.627Z" fill="#231F20"/>
<path d="M601.452 405.35C599.545 402.536 597.918 401.597 595 401.597C591.522 401.597 588.829 403.89 588.829 406.965C588.829 408.477 589.613 409.728 591.185 410.718C592.531 411.552 592.531 411.552 597.637 413.637C603.698 416.087 606.109 418.85 606.109 423.228C606.109 429.222 600.948 433.914 594.215 433.914C588.322 433.914 584.115 430.63 582.713 424.948L586.752 423.906C587.201 425.678 587.538 426.512 588.266 427.45C589.613 429.222 591.913 430.264 594.382 430.264C598.591 430.264 601.901 427.242 601.901 423.436C601.901 421.299 600.891 419.684 598.815 418.485C597.413 417.651 597.413 417.651 592.194 415.463C586.809 413.221 584.621 410.719 584.621 406.914C584.621 401.807 589.109 397.949 595.112 397.949C599.32 397.949 602.518 399.773 604.763 403.37L601.452 405.35Z" fill="#231F20"/>
<path d="M641.067 406.184C637.42 403.004 633.998 401.597 629.734 401.597C621.485 401.597 614.64 408.112 614.64 416.087C614.64 423.853 621.485 430.264 629.788 430.264C633.941 430.264 637.476 428.857 641.066 425.73V430.525C637.419 432.871 633.884 433.914 629.788 433.914C619.184 433.914 610.432 425.834 610.432 416.036C610.432 406.081 619.241 397.949 630.013 397.949C634.164 397.949 637.251 398.939 641.067 401.389V406.184Z" fill="#231F20"/>
<path d="M652.177 398.521H647.969V433.287H652.177V398.521Z" fill="#231F20"/>
<path d="M665.36 402.118V412.49H680.116V416.087H665.36V429.69H680.509V433.287H661.152V398.521H680.509V402.118H665.36Z" fill="#231F20"/>
<path d="M687.467 397.062L716.588 425.469V398.521H720.796V434.851L691.675 406.496V433.287H687.467V397.062Z" fill="#231F20"/>
<path d="M758.33 406.184C754.683 403.004 751.261 401.597 746.997 401.597C738.748 401.597 731.904 408.112 731.904 416.087C731.904 423.853 738.748 430.264 747.052 430.264C751.204 430.264 754.74 428.857 758.329 425.73V430.525C754.682 432.871 751.147 433.914 747.052 433.914C736.448 433.914 727.695 425.834 727.695 416.036C727.695 406.081 736.505 397.949 747.277 397.949C751.429 397.949 754.515 398.939 758.33 401.389V406.184Z" fill="#231F20"/>
<path d="M769.438 402.118V412.49H784.195V416.087H769.438V429.69H784.588V433.287H765.23V398.521H784.588V402.118H769.438Z" fill="#231F20"/>
<path d="M583.474 246.845C576.101 239.993 568.938 235.022 561.995 231.943C554.759 228.584 547.102 226.904 539.026 226.904C526.685 226.904 516.618 230.756 508.826 238.447C501.17 246.005 497.341 256.154 497.341 268.89C497.341 281.346 501.028 291.209 508.401 298.487C515.627 305.911 525.341 309.617 537.536 309.617C544.483 309.617 551.998 308.077 560.08 304.998C567.31 302.06 575.676 297.088 585.176 290.09L582.624 369.236C574.259 372.736 565.893 375.255 557.527 376.794C549.161 378.474 540.797 379.314 532.431 379.314C521.655 379.314 511.657 378.195 502.446 375.955C492.941 373.716 484.292 370.43 476.5 366.086C457.637 355.595 443.316 342.02 433.537 325.359C423.897 308.99 419.076 290.164 419.076 268.891C419.076 253.356 421.838 238.728 427.368 225.012C433.039 211.442 441.048 199.613 451.403 189.537C461.895 179.18 474.157 171.343 488.194 166.025C502.373 160.706 517.47 158.047 533.498 158.047C542.287 158.047 550.796 158.96 559.019 160.774C567.243 162.453 575.392 165.112 583.474 168.751V246.845Z" fill="#951A2F"/>
<path d="M444.438 209.022C444.438 212.229 447.039 214.83 450.246 214.83C453.454 214.83 456.053 212.229 456.053 209.022C456.053 205.815 453.454 203.214 450.246 203.214C447.039 203.214 444.438 205.815 444.438 209.022Z" fill="white"/>
<path d="M429.193 174.177L450.124 209.265" stroke="white" stroke-width="2"/>
<path d="M444.68 209.022C444.68 212.229 447.281 214.83 450.488 214.83C453.695 214.83 456.296 212.229 456.296 209.022C456.296 205.815 453.695 203.214 450.488 203.214C447.281 203.214 444.68 205.815 444.68 209.022Z" fill="white"/>
<path d="M465.732 243.868C465.732 247.075 468.333 249.676 471.54 249.676C474.747 249.676 477.348 247.075 477.348 243.868C477.348 240.66 474.747 238.06 471.54 238.06C468.333 238.06 465.732 240.66 465.732 243.868Z" fill="white"/>
<path d="M450.486 209.022L471.419 244.11" stroke="white" stroke-width="2"/>
<path d="M435.243 243.868C435.243 247.075 432.642 249.676 429.435 249.676C426.227 249.676 423.627 247.075 423.627 243.868C423.627 240.66 426.227 238.06 429.435 238.06C432.643 238.061 435.243 240.66 435.243 243.868Z" fill="white"/>
<path d="M450.487 209.022L429.557 244.11" stroke="white" stroke-width="2"/>
<path d="M423.387 243.868C423.387 247.075 425.988 249.676 429.195 249.676C432.402 249.676 435.003 247.075 435.003 243.868C435.003 240.66 432.402 238.06 429.195 238.06C425.988 238.06 423.387 240.66 423.387 243.868Z" fill="white"/>
<path d="M444.438 278.713C444.438 281.921 447.039 284.521 450.246 284.521C453.454 284.521 456.053 281.921 456.053 278.713C456.053 275.506 453.454 272.905 450.246 272.905C447.039 272.905 444.438 275.506 444.438 278.713Z" fill="white"/>
<path d="M429.193 243.868L450.124 278.956" stroke="white" stroke-width="2"/>
<path d="M429.194 243.868L408.264 278.956" stroke="white" stroke-width="2"/>
<path d="M423.627 313.559C423.627 316.766 426.227 319.367 429.435 319.367C432.642 319.367 435.243 316.766 435.243 313.559C435.243 310.352 432.642 307.751 429.435 307.751C426.227 307.751 423.627 310.352 423.627 313.559Z" fill="white"/>
<path d="M444.68 278.713C444.68 281.921 447.281 284.521 450.488 284.521C453.695 284.521 456.296 281.921 456.296 278.713C456.296 275.506 453.695 272.905 450.488 272.905C447.281 272.905 444.68 275.506 444.68 278.713Z" fill="white"/>
<path d="M450.486 278.713L471.419 313.801" stroke="white" stroke-width="2"/>
<path d="M435.243 313.559C435.243 316.766 432.642 319.367 429.435 319.367C426.227 319.367 423.627 316.766 423.627 313.559C423.627 310.352 426.227 307.751 429.435 307.751C432.643 307.751 435.243 310.352 435.243 313.559Z" fill="white"/>
<path d="M450.487 278.713L429.557 313.801" stroke="white" stroke-width="2"/>
<path d="M465.49 313.559C465.49 316.766 468.091 319.367 471.298 319.367C474.505 319.367 477.106 316.766 477.106 313.559C477.106 310.352 474.505 307.751 471.298 307.751C468.091 307.751 465.49 310.352 465.49 313.559Z" fill="white"/>
<path d="M450.246 278.713L471.177 313.801" stroke="white" stroke-width="2"/>
<path d="M444.68 348.404C444.68 351.611 447.281 354.212 450.488 354.212C453.695 354.212 456.296 351.611 456.296 348.404C456.296 345.197 453.695 342.596 450.488 342.596C447.281 342.596 444.68 345.197 444.68 348.404Z" fill="white"/>
<path d="M456.294 348.404C456.294 351.611 453.693 354.212 450.486 354.212C447.279 354.212 444.678 351.611 444.678 348.404C444.678 345.197 447.279 342.596 450.486 342.596C453.693 342.596 456.294 345.197 456.294 348.404Z" fill="white"/>
<path d="M471.54 313.559L450.609 348.646" stroke="white" stroke-width="2"/>
<path d="M608.008 355.801L632.469 296.808C642.961 304.232 652.744 309.757 661.819 313.396C670.043 316.895 678.05 318.641 685.848 318.641C691.094 318.641 695.279 317.662 698.4 315.703C701.372 313.889 702.862 311.23 702.862 307.724C702.862 301.993 695.348 297.514 680.319 294.289C674.222 293.035 670.394 292.263 668.835 291.982C652.813 288.064 640.619 281.206 632.254 271.409C623.889 262.032 619.709 249.856 619.709 234.882C619.709 212.349 627.858 193.942 644.164 179.667C660.47 165.392 682.02 158.254 708.818 158.254C720.728 158.254 732.779 159.867 744.973 163.086C756.742 166.304 768.725 171.131 780.919 177.568L757.523 232.57C749.584 227.117 742.136 223.058 735.189 220.394C728.1 217.594 720.937 216.195 713.711 216.195C708.176 216.195 704.064 217.035 701.375 218.715C698.393 220.394 696.906 222.845 696.906 226.065C696.906 232.222 707.54 237.474 728.808 241.807C732.777 242.792 735.398 243.418 736.68 243.699C750.994 246.919 762.553 253.496 771.343 263.432C779.851 273.508 784.104 285.757 784.104 300.167C784.104 323.399 775.524 342.433 758.373 357.268C741.359 371.969 719.24 379.314 692.018 379.314C677.692 379.314 663.654 377.355 649.907 373.436C636.433 369.937 622.47 364.059 608.008 355.801Z" fill="#951A2F"/>
<path d="M676.016 171.273C676.016 174.48 673.415 177.081 670.208 177.081C667.001 177.081 664.4 174.48 664.4 171.273C664.4 168.065 667.001 165.465 670.208 165.465C673.415 165.465 676.016 168.065 676.016 171.273Z" fill="white"/>
<path d="M654.964 206.119C654.964 209.326 652.364 211.927 649.156 211.927C645.949 211.927 643.348 209.326 643.348 206.119C643.348 202.912 645.949 200.311 649.156 200.311C652.364 200.311 654.964 202.912 654.964 206.119Z" fill="white"/>
<path d="M670.208 171.273L649.277 206.361" stroke="white" stroke-width="2"/>
<path d="M685.453 206.119C685.453 209.326 688.054 211.927 691.261 211.927C694.468 211.927 697.069 209.326 697.069 206.119C697.069 202.912 694.468 200.311 691.261 200.311C688.054 200.311 685.453 202.912 685.453 206.119Z" fill="white"/>
<path d="M670.209 171.273L691.14 206.361" stroke="white" stroke-width="2"/>
<path d="M654.722 206.119C654.722 209.326 652.122 211.927 648.915 211.927C645.707 211.927 643.107 209.326 643.107 206.119C643.107 202.912 645.707 200.311 648.915 200.311C652.122 200.311 654.722 202.912 654.722 206.119Z" fill="white"/>
<path d="M633.671 240.964C633.671 244.171 631.07 246.772 627.863 246.772C624.656 246.772 622.055 244.171 622.055 240.964C622.055 237.757 624.656 235.156 627.863 235.156C631.07 235.156 633.671 237.757 633.671 240.964Z" fill="white"/>
<path d="M648.915 206.119L627.982 241.206" stroke="white" stroke-width="2"/>
<path d="M664.16 240.964C664.16 244.171 666.761 246.772 669.968 246.772C673.175 246.772 675.776 244.171 675.776 240.964C675.776 237.757 673.175 235.156 669.968 235.156C666.761 235.156 664.16 237.757 664.16 240.964Z" fill="white"/>
<path d="M648.916 206.119L669.846 241.206" stroke="white" stroke-width="2"/>
<path d="M676.016 240.964C676.016 244.171 673.415 246.772 670.208 246.772C667.001 246.772 664.4 244.171 664.4 240.964C664.4 237.757 667.001 235.156 670.208 235.156C673.415 235.156 676.016 237.757 676.016 240.964Z" fill="white"/>
<path d="M654.964 275.81C654.964 279.017 652.364 281.618 649.156 281.618C645.949 281.618 643.348 279.017 643.348 275.81C643.348 272.603 645.949 270.002 649.156 270.002C652.364 270.002 654.964 272.603 654.964 275.81Z" fill="white"/>
<path d="M670.208 240.964L649.277 276.052" stroke="white" stroke-width="2"/>
<path d="M685.453 275.81C685.453 279.017 688.054 281.618 691.261 281.618C694.468 281.618 697.069 279.017 697.069 275.81C697.069 272.603 694.468 270.002 691.261 270.002C688.054 270.002 685.453 272.603 685.453 275.81Z" fill="white"/>
<path d="M670.209 240.964L691.14 276.052" stroke="white" stroke-width="2"/>
<path d="M696.827 275.81C696.827 279.017 694.226 281.618 691.019 281.618C687.812 281.618 685.211 279.017 685.211 275.81C685.211 272.603 687.812 270.002 691.019 270.002C694.226 270.002 696.827 272.603 696.827 275.81Z" fill="white"/>
<path d="M691.02 275.81L670.088 310.897" stroke="white" stroke-width="2"/>
<path d="M706.266 310.655C706.266 313.862 708.866 316.463 712.074 316.463C715.281 316.463 717.882 313.862 717.882 310.655C717.882 307.447 715.281 304.847 712.074 304.847C708.865 304.848 706.266 307.447 706.266 310.655Z" fill="white"/>
<path d="M691.021 275.81L711.951 310.897" stroke="white" stroke-width="2"/>
<path d="M686.18 345.5C686.18 348.707 688.781 351.308 691.988 351.308C695.195 351.308 697.796 348.707 697.796 345.5C697.796 342.293 695.195 339.692 691.988 339.692C688.781 339.692 686.18 342.293 686.18 345.5Z" fill="white"/>
<path d="M717.882 310.655C717.882 313.862 715.281 316.463 712.074 316.463C708.866 316.463 706.266 313.862 706.266 310.655C706.266 307.447 708.866 304.847 712.074 304.847C715.281 304.848 717.882 307.447 717.882 310.655Z" fill="white"/>
<path d="M654.722 275.81C654.722 279.017 652.122 281.618 648.915 281.618C645.707 281.618 643.107 279.017 643.107 275.81C643.107 272.603 645.707 270.002 648.915 270.002C652.122 270.002 654.722 272.603 654.722 275.81Z" fill="white"/>
<path d="M648.916 275.81L669.846 310.897" stroke="white" stroke-width="2"/>
<path d="M686.42 345.5C686.42 348.707 689.021 351.308 692.228 351.308C695.435 351.308 698.036 348.707 698.036 345.5C698.036 342.293 695.435 339.692 692.228 339.692C689.021 339.692 686.42 342.293 686.42 345.5Z" fill="white"/>
<path d="M671.176 310.655L692.107 345.743" stroke="white" stroke-width="2"/>
<path d="M159.273 268.431C158.99 274.818 157.431 284.952 154.596 298.847C153.887 300.974 153.462 302.675 153.318 303.952L137.37 376.687H70.3745L8.0625 163.158H85.0515L101.85 257.162C102.418 261.415 102.984 265.425 103.551 269.18C104.119 272.934 104.613 276.513 105.044 279.916C105.747 286.018 106.246 292.398 106.529 299.057H108.232C108.373 290.55 109.933 279.422 112.91 265.669C112.91 265.243 112.944 264.744 113.018 264.178C113.086 263.611 113.193 263.118 113.335 262.692L133.753 163.158H187.773L207.98 262.902C208.116 263.618 208.331 264.536 208.615 265.67C211.309 279.849 212.801 290.982 213.085 299.058H214.995C214.995 295.371 215.421 288.992 216.271 279.917C217.122 272.124 218.257 264.536 219.674 257.163L236.479 163.159H313.468L251.15 376.689H184.16L167.997 303.954L166.93 298.633C164.094 286.587 162.461 276.521 162.042 268.433H159.273V268.431Z" fill="#951A2F"/>
<path d="M60.4138 168.37C60.4138 171.577 57.8138 174.178 54.6058 174.178C51.3988 174.178 48.7988 171.577 48.7988 168.37C48.7988 165.162 51.3988 162.562 54.6058 162.562C57.8128 162.562 60.4138 165.162 60.4138 168.37Z" fill="white"/>
<path d="M39.3611 203.215C39.3611 206.423 36.7601 209.023 33.5531 209.023C30.3461 209.023 27.7461 206.423 27.7461 203.215C27.7461 200.008 30.3461 197.407 33.5531 197.407C36.7601 197.407 39.3611 200.008 39.3611 203.215Z" fill="white"/>
<path d="M54.6068 168.37L33.6758 203.458" stroke="white" stroke-width="2"/>
<path d="M69.8516 203.215C69.8516 206.423 72.4516 209.023 75.6596 209.023C78.8666 209.023 81.4666 206.423 81.4666 203.215C81.4666 200.008 78.8666 197.407 75.6596 197.407C72.4516 197.407 69.8516 200.008 69.8516 203.215Z" fill="white"/>
<path d="M54.6074 168.37L75.5394 203.458" stroke="white" stroke-width="2"/>
<path d="M39.1209 203.215C39.1209 206.423 36.5199 209.023 33.3129 209.023C30.1059 209.023 27.5059 206.423 27.5059 203.215C27.5059 200.008 30.1059 197.407 33.3129 197.407C36.5199 197.407 39.1209 200.008 39.1209 203.215Z" fill="white"/>
<path d="M33.3119 203.215L12.3809 238.303" stroke="white" stroke-width="2"/>
<path d="M48.5566 238.061C48.5566 241.268 51.1576 243.869 54.3646 243.869C57.5716 243.869 60.1716 241.268 60.1716 238.061C60.1716 234.853 57.5716 232.253 54.3646 232.253C51.1576 232.253 48.5566 234.853 48.5566 238.061Z" fill="white"/>
<path d="M33.3125 203.215L54.2435 238.303" stroke="white" stroke-width="2"/>
<path d="M60.4138 238.061C60.4138 241.268 57.8138 243.869 54.6058 243.869C51.3988 243.869 48.7988 241.268 48.7988 238.061C48.7988 234.853 51.3988 232.253 54.6058 232.253C57.8128 232.252 60.4138 234.853 60.4138 238.061Z" fill="white"/>
<path d="M54.6068 238.061L33.6758 273.148" stroke="white" stroke-width="2"/>
<path d="M69.8516 272.905C69.8516 276.113 72.4516 278.713 75.6596 278.713C78.8666 278.713 81.4666 276.113 81.4666 272.905C81.4666 269.698 78.8666 267.097 75.6596 267.097C72.4516 267.098 69.8516 269.698 69.8516 272.905Z" fill="white"/>
<path d="M54.6074 238.061L75.5394 273.148" stroke="white" stroke-width="2"/>
<path d="M81.2263 272.905C81.2263 276.113 78.6253 278.713 75.4183 278.713C72.2113 278.713 69.6113 276.113 69.6113 272.905C69.6113 269.698 72.2113 267.097 75.4183 267.097C78.6253 267.097 81.2263 269.698 81.2263 272.905Z" fill="white"/>
<path d="M75.4173 272.905L54.4863 307.993" stroke="white" stroke-width="2"/>
<path d="M90.6621 307.751C90.6621 310.958 93.2631 313.559 96.4701 313.559C99.6771 313.559 102.277 310.958 102.277 307.751C102.277 304.544 99.6771 301.943 96.4701 301.943C93.2631 301.943 90.6621 304.544 90.6621 307.751Z" fill="white"/>
<path d="M75.418 272.905L96.349 307.993" stroke="white" stroke-width="2"/>
<path d="M70.5762 342.597C70.5762 345.804 73.1772 348.405 76.3842 348.405C79.5912 348.405 82.1912 345.804 82.1912 342.597C82.1912 339.39 79.5912 336.789 76.3842 336.789C73.1772 336.789 70.5762 339.39 70.5762 342.597Z" fill="white"/>
<path d="M102.277 307.751C102.277 310.958 99.6761 313.559 96.4691 313.559C93.2621 313.559 90.6621 310.958 90.6621 307.751C90.6621 304.544 93.2621 301.943 96.4691 301.943C99.6761 301.943 102.277 304.544 102.277 307.751Z" fill="white"/>
<path d="M76.3841 342.597L55.4531 377.685" stroke="white" stroke-width="2"/>
<path d="M49.7656 307.751C49.7656 310.958 52.3666 313.559 55.5736 313.559C58.7806 313.559 61.3806 310.958 61.3806 307.751C61.3806 304.544 58.7806 301.943 55.5736 301.943C52.3666 301.943 49.7656 304.544 49.7656 307.751Z" fill="white"/>
<path d="M70.8203 342.597C70.8203 345.804 73.4203 348.405 76.6283 348.405C79.8353 348.405 82.4353 345.804 82.4353 342.597C82.4353 339.39 79.8353 336.789 76.6283 336.789C73.4203 336.789 70.8203 339.39 70.8203 342.597Z" fill="white"/>
<path d="M55.5742 307.751L76.5052 342.839" stroke="white" stroke-width="2"/>
<path d="M405.857 161.706H327.799V375.236H405.857V161.706Z" fill="#951A2F"/>
<path d="M388.543 237.334C388.543 240.542 385.943 243.142 382.735 243.142C379.528 243.142 376.928 240.542 376.928 237.334C376.928 234.127 379.528 231.527 382.735 231.527C385.943 231.527 388.543 234.127 388.543 237.334Z" fill="white"/>
<path d="M355.875 202.489C355.875 205.697 358.475 208.297 361.682 208.297C364.89 208.297 367.49 205.697 367.49 202.489C367.49 199.282 364.89 196.681 361.682 196.681C358.475 196.681 355.875 199.282 355.875 202.489Z" fill="white"/>
<path d="M361.682 202.489L382.614 237.577" stroke="white" stroke-width="2"/>
<path d="M346.437 237.334C346.437 240.542 343.837 243.142 340.629 243.142C337.422 243.142 334.822 240.542 334.822 237.334C334.822 234.127 337.422 231.527 340.629 231.527C343.837 231.527 346.437 234.127 346.437 237.334Z" fill="white"/>
<path d="M361.683 202.489L340.752 237.577" stroke="white" stroke-width="2"/>
<path d="M335.064 237.334C335.064 240.542 337.664 243.142 340.872 243.142C344.079 243.142 346.679 240.542 346.679 237.334C346.679 234.127 344.079 231.527 340.872 231.527C337.665 231.527 335.064 234.127 335.064 237.334Z" fill="white"/>
<path d="M356.117 272.18C356.117 275.387 358.718 277.988 361.925 277.988C365.132 277.988 367.732 275.387 367.732 272.18C367.732 268.973 365.132 266.372 361.925 266.372C358.718 266.372 356.117 268.973 356.117 272.18Z" fill="white"/>
<path d="M340.873 237.334L361.805 272.422" stroke="white" stroke-width="2"/>
<path d="M340.872 237.334L319.941 272.422" stroke="white" stroke-width="2"/>
<path d="M356.117 202.489C356.117 205.697 358.718 208.297 361.925 208.297C365.132 208.297 367.732 205.697 367.732 202.489C367.732 199.282 365.132 196.681 361.925 196.681C358.718 196.681 356.117 199.282 356.117 202.489Z" fill="white"/>
<path d="M340.873 167.644L361.805 202.731" stroke="white" stroke-width="2"/>
<path d="M340.872 167.644L319.941 202.731" stroke="white" stroke-width="2"/>
<path d="M405.855 163.158H327.799V376.687H405.855V163.158Z" fill="#951A2F"/>
<path d="M388.543 238.786C388.543 241.993 385.942 244.594 382.735 244.594C379.528 244.594 376.928 241.993 376.928 238.786C376.928 235.579 379.528 232.978 382.735 232.978C385.942 232.978 388.543 235.579 388.543 238.786Z" fill="white"/>
<path d="M355.875 203.941C355.875 207.148 358.475 209.749 361.682 209.749C364.89 209.749 367.49 207.148 367.49 203.941C367.49 200.733 364.89 198.133 361.682 198.133C358.475 198.133 355.875 200.733 355.875 203.941Z" fill="white"/>
<path d="M361.682 203.941L382.613 239.028" stroke="white" stroke-width="2"/>
<path d="M346.437 238.786C346.437 241.993 343.837 244.594 340.629 244.594C337.422 244.594 334.822 241.993 334.822 238.786C334.822 235.579 337.422 232.978 340.629 232.978C343.837 232.978 346.437 235.579 346.437 238.786Z" fill="white"/>
<path d="M361.683 203.941L340.752 239.028" stroke="white" stroke-width="2"/>
<path d="M335.064 238.786C335.064 241.993 337.664 244.594 340.872 244.594C344.079 244.594 346.679 241.993 346.679 238.786C346.679 235.579 344.079 232.978 340.872 232.978C337.665 232.978 335.064 235.579 335.064 238.786Z" fill="white"/>
<path d="M356.117 273.632C356.117 276.839 358.718 279.44 361.925 279.44C365.132 279.44 367.732 276.839 367.732 273.632C367.732 270.425 365.132 267.824 361.925 267.824C358.718 267.824 356.117 270.425 356.117 273.632Z" fill="white"/>
<path d="M340.873 238.786L361.805 273.874" stroke="white" stroke-width="2"/>
<path d="M340.872 238.786L319.941 273.874" stroke="white" stroke-width="2"/>
<path d="M356.117 203.941C356.117 207.148 358.718 209.749 361.925 209.749C365.132 209.749 367.732 207.148 367.732 203.941C367.732 200.733 365.132 198.133 361.925 198.133C358.718 198.133 356.117 200.733 356.117 203.941Z" fill="white"/>
<path d="M340.873 169.095L361.805 204.183" stroke="white" stroke-width="2"/>
<path d="M340.872 169.095L319.941 204.183" stroke="white" stroke-width="2"/>
</svg>
